<?xml version="1.0" encoding="UTF-8"?><svg id="Layer_5" xmlns="http://www.w3.org/2000/svg" xmlns:xlink="http://www.w3.org/1999/xlink" viewBox="0 0 742 425"><defs><style>.cls-1{fill:url(#linear-gradient-38);}.cls-1,.cls-2,.cls-3,.cls-4,.cls-5,.cls-6,.cls-7,.cls-8,.cls-9,.cls-10,.cls-11,.cls-12,.cls-13,.cls-14,.cls-15,.cls-16,.cls-17,.cls-18,.cls-19,.cls-20,.cls-21,.cls-22,.cls-23,.cls-24,.cls-25,.cls-26,.cls-27,.cls-28,.cls-29,.cls-30,.cls-31,.cls-32,.cls-33,.cls-34,.cls-35,.cls-36,.cls-37,.cls-38,.cls-39,.cls-40,.cls-41,.cls-42,.cls-43,.cls-44,.cls-45,.cls-46,.cls-47,.cls-48,.cls-49,.cls-50,.cls-51,.cls-52,.cls-53,.cls-54,.cls-55,.cls-56,.cls-57,.cls-58,.cls-59,.cls-60,.cls-61,.cls-62,.cls-63,.cls-64,.cls-65,.cls-66,.cls-67,.cls-68,.cls-69,.cls-70,.cls-71,.cls-72,.cls-73,.cls-74,.cls-75,.cls-76,.cls-77,.cls-78,.cls-79,.cls-80,.cls-81,.cls-82,.cls-83,.cls-84,.cls-85,.cls-86,.cls-87,.cls-88,.cls-89,.cls-90,.cls-91,.cls-92{stroke-width:0px;}.cls-2{fill:url(#linear-gradient-12);}.cls-3{fill:url(#linear-gradient-17);}.cls-4{fill:url(#linear-gradient-19);}.cls-5{fill:url(#linear-gradient-33);}.cls-6{fill:url(#linear-gradient-62);}.cls-7{fill:url(#linear-gradient-67);}.cls-8{fill:url(#linear-gradient-57);}.cls-93,.cls-12{fill:#1a1a1a;}.cls-9{fill:url(#linear-gradient-21);}.cls-10{fill:url(#linear-gradient-6);}.cls-94,.cls-95,.cls-96,.cls-97{stroke-miterlimit:10;}.cls-94,.cls-95,.cls-96,.cls-97,.cls-98{fill:none;}.cls-94,.cls-96{stroke-width:.71px;}.cls-94,.cls-98{stroke:#ecbb0a;}.cls-11{fill:url(#linear-gradient-76);}.cls-99{stroke-width:1.2px;}.cls-99,.cls-100,.cls-95,.cls-96,.cls-97,.cls-98,.cls-101{stroke-linecap:round;}.cls-99,.cls-100,.cls-98,.cls-101{stroke-linejoin:round;}.cls-99,.cls-100,.cls-101{fill:#eb0037;stroke:#000;}.cls-102{clip-path:url(#clippath-2);}.cls-100{stroke-width:1.1px;}.cls-13{fill:url(#linear-gradient-42);}.cls-14{fill:url(#linear-gradient);opacity:.7;}.cls-15{fill:url(#linear-gradient-15);}.cls-103{clip-path:url(#clippath-6);}.cls-16{fill:url(#linear-gradient-11);}.cls-17{fill:#223654;}.cls-18{fill:url(#linear-gradient-81);}.cls-19{fill:url(#linear-gradient-73);}.cls-20{fill:url(#linear-gradient-5);}.cls-95{stroke:gray;}.cls-95,.cls-97,.cls-98{stroke-width:.53px;}.cls-21{fill:url(#linear-gradient-31);}.cls-22{fill:#727c92;}.cls-23{fill:url(#linear-gradient-71);}.cls-24{fill:url(#linear-gradient-58);}.cls-25{fill:url(#linear-gradient-63);}.cls-96{stroke:#151c2b;}.cls-97{stroke:#d4d8df;}.cls-26{fill:url(#linear-gradient-34);}.cls-104{clip-path:url(#clippath-7);}.cls-105{clip-path:url(#clippath-1);}.cls-106{clip-path:url(#clippath-4);}.cls-27{fill:url(#linear-gradient-41);}.cls-28{fill:url(#linear-gradient-40);}.cls-29{fill:url(#linear-gradient-66);}.cls-30{fill:url(#linear-gradient-13);}.cls-31{fill:url(#linear-gradient-23);}.cls-32{fill:#151c2b;}.cls-33{fill:url(#linear-gradient-25);}.cls-34{fill:url(#linear-gradient-43);}.cls-35{fill:url(#linear-gradient-16);}.cls-36{fill:url(#linear-gradient-22);}.cls-37{fill:url(#linear-gradient-54);}.cls-38{fill:url(#linear-gradient-55);}.cls-39{fill:url(#linear-gradient-35);}.cls-40{fill:url(#linear-gradient-50);}.cls-41{fill:url(#linear-gradient-32);}.cls-42{fill:url(#linear-gradient-60);}.cls-43{fill:url(#linear-gradient-59);}.cls-44{fill:url(#linear-gradient-20);}.cls-45{fill:url(#linear-gradient-14);}.cls-46{fill:url(#linear-gradient-2);}.cls-101{stroke-width:1.03px;}.cls-47{fill:url(#linear-gradient-52);}.cls-48{fill:url(#linear-gradient-45);}.cls-49{fill:url(#linear-gradient-7);}.cls-50{fill:#a3ea2a;}.cls-51{fill:#ecbb0a;}.cls-52{fill:url(#linear-gradient-39);}.cls-53{fill:url(#linear-gradient-3);}.cls-54{fill:url(#linear-gradient-77);}.cls-107{clip-path:url(#clippath-9);}.cls-55{fill:url(#linear-gradient-69);}.cls-108{clip-path:url(#clippath);}.cls-56{fill:url(#linear-gradient-9);}.cls-57{fill:url(#linear-gradient-27);}.cls-58{fill:url(#linear-gradient-82);}.cls-59{fill:url(#linear-gradient-83);}.cls-60{fill:url(#linear-gradient-53);}.cls-61{fill:#eb0037;}.cls-109{clip-path:url(#clippath-3);}.cls-62{fill:url(#linear-gradient-65);}.cls-63{fill:url(#linear-gradient-36);}.cls-64{fill:gray;}.cls-65{fill:url(#linear-gradient-48);}.cls-66{fill:url(#linear-gradient-49);}.cls-67{fill:url(#linear-gradient-8);}.cls-68{fill:url(#linear-gradient-47);}.cls-110{clip-path:url(#clippath-8);}.cls-69{fill:url(#linear-gradient-24);}.cls-70{fill:url(#linear-gradient-26);}.cls-71{fill:url(#linear-gradient-61);}.cls-72{fill:url(#linear-gradient-18);}.cls-73{fill:url(#linear-gradient-51);}.cls-74{fill:url(#linear-gradient-30);}.cls-75{fill:#d4d8df;}.cls-76{fill:url(#linear-gradient-44);}.cls-77{fill:url(#linear-gradient-68);}.cls-78{fill:url(#linear-gradient-72);}.cls-79{fill:url(#linear-gradient-29);}.cls-80{fill:url(#linear-gradient-46);}.cls-111{clip-path:url(#clippath-5);}.cls-81{fill:url(#linear-gradient-64);}.cls-82{fill:url(#linear-gradient-28);}.cls-83{fill:url(#linear-gradient-56);}.cls-84{fill:url(#linear-gradient-10);}.cls-85{fill:url(#linear-gradient-70);}.cls-86{fill:url(#linear-gradient-78);}.cls-87{fill:url(#linear-gradient-74);}.cls-88{fill:url(#linear-gradient-4);}.cls-89{fill:url(#linear-gradient-37);}.cls-90{fill:url(#linear-gradient-80);}.cls-91{fill:url(#linear-gradient-79);}.cls-92{fill:url(#linear-gradient-75);}</style><linearGradient id="linear-gradient" x1="371" y1="663.25" x2="371" y2="-75.71" gradientUnits="userSpaceOnUse"><stop offset="0" stop-color="#719cf9"/><stop offset=".1" stop-color="rgba(113,156,249,.93)" stop-opacity=".93"/><stop offset=".32" stop-color="rgba(113,156,249,.74)" stop-opacity=".74"/><stop offset=".61" stop-color="rgba(113,156,249,.43)" stop-opacity=".43"/><stop offset=".98" stop-color="rgba(113,156,249,.02)" stop-opacity=".02"/><stop offset="1" stop-color="#719cf9" stop-opacity="0"/></linearGradient><linearGradient id="linear-gradient-2" x1="298.3" y1="272.37" x2="371.25" y2="402.84" gradientUnits="userSpaceOnUse"><stop offset=".02" stop-color="#151c2b" stop-opacity="0"/><stop offset=".38" stop-color="rgba(21,28,43,.55)" stop-opacity=".55"/><stop offset=".72" stop-color="rgba(21,28,43,.88)" stop-opacity=".88"/><stop offset="1" stop-color="#151c2b"/></linearGradient><linearGradient id="linear-gradient-3" x1="233.78" y1="256.84" x2="307.88" y2="333.67" gradientUnits="userSpaceOnUse"><stop offset=".02" stop-color="#151c2b" stop-opacity="0"/><stop offset=".67" stop-color="rgba(21,28,43,.63)" stop-opacity=".63"/><stop offset="1" stop-color="#151c2b"/></linearGradient><linearGradient id="linear-gradient-4" x1="175.92" y1="166.87" x2="499.94" y2="368.76" gradientTransform="translate(6.72 59.09) rotate(-.82) scale(1 .87) skewX(-1.53)" gradientUnits="userSpaceOnUse"><stop offset=".15" stop-color="#151c2b" stop-opacity="0"/><stop offset="1" stop-color="#151c2b"/></linearGradient><linearGradient id="linear-gradient-5" x1="446.4" y1="89.78" x2="446.4" y2="115.88" gradientUnits="userSpaceOnUse"><stop offset=".13" stop-color="#d4d8df"/><stop offset=".68" stop-color="#4f5669"/><stop offset="1" stop-color="#1c3756"/></linearGradient><linearGradient id="linear-gradient-6" y1="92.46" x2="446.4" y2="114.12" xlink:href="#linear-gradient-5"/><linearGradient id="linear-gradient-7" x1="382.16" y1="105.67" x2="341.86" y2="105.67" gradientUnits="userSpaceOnUse"><stop offset=".02" stop-color="#ecbb0a"/><stop offset=".23" stop-color="#e9b80a"/><stop offset=".37" stop-color="#e0b20b"/><stop offset=".49" stop-color="#d1a70e"/><stop offset=".6" stop-color="#bc9711"/><stop offset=".7" stop-color="#a08315"/><stop offset=".79" stop-color="#7e6a1a"/><stop offset=".88" stop-color="#564c20"/><stop offset=".97" stop-color="#282a27"/><stop offset="1" stop-color="#151c2b"/></linearGradient><linearGradient id="linear-gradient-8" x1="366.54" y1="118.45" x2="366.54" y2="84.45" gradientUnits="userSpaceOnUse"><stop offset=".02" stop-color="#ecbb0a"/><stop offset="1" stop-color="#151c2b"/></linearGradient><linearGradient id="linear-gradient-9" x1="446.4" y1="85.74" x2="446.4" y2="111.84" xlink:href="#linear-gradient-5"/><linearGradient id="linear-gradient-10" x1="442.65" y1="75.59" x2="442.65" y2="124.67" xlink:href="#linear-gradient-5"/><linearGradient id="linear-gradient-11" x1="442.65" y1="87.55" x2="442.65" y2="116.8" xlink:href="#linear-gradient-5"/><linearGradient id="linear-gradient-12" x1="442.65" y1="73.39" x2="442.65" y2="122.46" xlink:href="#linear-gradient-5"/><linearGradient id="linear-gradient-13" x1="451.96" y1="75.15" x2="451.96" y2="92.16" xlink:href="#linear-gradient-8"/><linearGradient id="linear-gradient-14" x1="463.03" y1="87.13" x2="433.58" y2="87.13" xlink:href="#linear-gradient-8"/><linearGradient id="linear-gradient-15" x1="486.78" y1="50.68" x2="486.78" y2="67.69" xlink:href="#linear-gradient-8"/><linearGradient id="linear-gradient-16" x1="502.16" y1="62.66" x2="455.29" y2="62.66" gradientUnits="userSpaceOnUse"><stop offset=".02" stop-color="#ecbb0a"/><stop offset=".08" stop-color="#e3b40b"/><stop offset=".19" stop-color="#cba30e"/><stop offset=".32" stop-color="#a58614"/><stop offset=".47" stop-color="#705f1d"/><stop offset=".63" stop-color="#2c2d27"/><stop offset=".69" stop-color="#151c2b"/></linearGradient><linearGradient id="linear-gradient-17" x1="433.62" y1="69.23" x2="433.62" y2="100.43" xlink:href="#linear-gradient-8"/><linearGradient id="linear-gradient-18" x1="452.39" y1="91.21" x2="348.32" y2="91.21" xlink:href="#linear-gradient-8"/><linearGradient id="linear-gradient-19" x1="261.91" y1="289.14" x2="397.78" y2="289.14" gradientUnits="userSpaceOnUse"><stop offset="0" stop-color="#9da8c4"/><stop offset=".17" stop-color="#51586b"/><stop offset=".36" stop-color="#828ca5"/><stop offset="1" stop-color="#828ca5"/></linearGradient><linearGradient id="linear-gradient-20" x1="242.73" y1="287.5" x2="455.2" y2="241.02" xlink:href="#linear-gradient-19"/><linearGradient id="linear-gradient-21" y1="269.41" y2="269.41" xlink:href="#linear-gradient-19"/><linearGradient id="linear-gradient-22" x1="242.73" y1="267.76" x2="455.2" y2="221.28" xlink:href="#linear-gradient-19"/><linearGradient id="linear-gradient-23" y1="249.62" y2="249.62" xlink:href="#linear-gradient-19"/><linearGradient id="linear-gradient-24" x1="242.73" y1="247.97" x2="455.2" y2="201.5" xlink:href="#linear-gradient-19"/><linearGradient id="linear-gradient-25" x1="423.28" y1="298.54" x2="532.85" y2="298.54" xlink:href="#linear-gradient-19"/><linearGradient id="linear-gradient-26" x1="407.81" y1="297.21" x2="579.16" y2="259.73" xlink:href="#linear-gradient-19"/><linearGradient id="linear-gradient-27" x1="271.17" y1="255.76" x2="323.75" y2="255.76" gradientUnits="userSpaceOnUse"><stop offset=".02" stop-color="#151c2b" stop-opacity="0"/><stop offset="1" stop-color="#151c2b"/></linearGradient><linearGradient id="linear-gradient-28" x1="423.28" y1="282.88" x2="532.85" y2="282.88" xlink:href="#linear-gradient-19"/><linearGradient id="linear-gradient-29" x1="407.81" y1="281.55" x2="579.16" y2="244.07" xlink:href="#linear-gradient-19"/><linearGradient id="linear-gradient-30" x1="423.28" y1="266.96" x2="532.85" y2="266.96" xlink:href="#linear-gradient-19"/><linearGradient id="linear-gradient-31" x1="407.81" y1="265.64" x2="579.16" y2="228.15" xlink:href="#linear-gradient-19"/><linearGradient id="linear-gradient-32" x1="290.06" y1="128.74" x2="386.43" y2="321.89" gradientUnits="userSpaceOnUse"><stop offset=".12" stop-color="#9ba6c2"/><stop offset=".54" stop-color="#4f5669"/><stop offset=".68" stop-color="#3c4860"/><stop offset=".87" stop-color="#293b57"/><stop offset="1" stop-color="#223654"/></linearGradient><linearGradient id="linear-gradient-33" x1="371" y1="148.38" x2="371" y2="232.78" xlink:href="#linear-gradient-5"/><linearGradient id="linear-gradient-34" x1="444.2" y1="166.03" x2="295.42" y2="395.96" gradientUnits="userSpaceOnUse"><stop offset="0" stop-color="#d4d8df"/><stop offset=".03" stop-color="#b7bcc5"/><stop offset=".08" stop-color="#979ca9"/><stop offset=".13" stop-color="#7c8291"/><stop offset=".19" stop-color="#686e7f"/><stop offset=".25" stop-color="#5a6072"/><stop offset=".32" stop-color="#51586b"/><stop offset=".45" stop-color="#4f5669"/><stop offset=".63" stop-color="#3a475f"/><stop offset=".84" stop-color="#283a56"/><stop offset="1" stop-color="#223654"/></linearGradient><linearGradient id="linear-gradient-35" x1="309.04" y1="158.09" x2="391.32" y2="344.94" gradientUnits="userSpaceOnUse"><stop offset="0" stop-color="#d4d8df"/><stop offset=".57" stop-color="#4f5669"/><stop offset=".71" stop-color="#3a475f"/><stop offset=".88" stop-color="#283a56"/><stop offset="1" stop-color="#223654"/></linearGradient><linearGradient id="linear-gradient-36" x1="431.85" y1="199.4" x2="322.44" y2="229.82" gradientUnits="userSpaceOnUse"><stop offset=".02" stop-color="#d4d8df"/><stop offset=".03" stop-color="#caced6"/><stop offset=".09" stop-color="#9a9fa9"/><stop offset=".16" stop-color="#717782"/><stop offset=".23" stop-color="#505662"/><stop offset=".3" stop-color="#363c4a"/><stop offset=".37" stop-color="#232a38"/><stop offset=".45" stop-color="#181f2e"/><stop offset=".53" stop-color="#151c2b"/><stop offset=".56" stop-color="#182032"/><stop offset=".61" stop-color="#212d46"/><stop offset=".67" stop-color="#304167"/><stop offset=".74" stop-color="#445e95"/><stop offset=".81" stop-color="#5e82d0"/><stop offset=".86" stop-color="#719cf9"/></linearGradient><linearGradient id="linear-gradient-37" x1="431.85" y1="229.83" x2="322.44" y2="260.26" xlink:href="#linear-gradient-36"/><linearGradient id="linear-gradient-38" y1="260.21" x2="322.44" y2="290.63" xlink:href="#linear-gradient-36"/><clipPath id="clippath"><path class="cls-12" d="M418.8,254.93v15.59c0,1.25-.77,2.37-1.94,2.82l-36.75,14.13c-1.98.76-4.11-.7-4.11-2.82v-15.59c0-1.25.77-2.37,1.94-2.82l36.75-14.13c1.98-.76,4.11.7,4.11,2.82Z"/></clipPath><linearGradient id="linear-gradient-39" x1="430.62" y1="258.91" x2="321.22" y2="289.33" xlink:href="#linear-gradient-36"/><clipPath id="clippath-1"><path class="cls-12" d="M418.8,224.55v15.59c0,1.25-.77,2.37-1.94,2.82l-36.75,14.13c-1.98.76-4.11-.7-4.11-2.82v-15.59c0-1.25.77-2.37,1.94-2.82l36.75-14.13c1.98-.76,4.11.7,4.11,2.82Z"/></clipPath><linearGradient id="linear-gradient-40" x1="430.62" y1="228.58" x2="321.22" y2="259" xlink:href="#linear-gradient-36"/><clipPath id="clippath-2"><path class="cls-12" d="M418.8,194.12v15.59c0,1.25-.77,2.37-1.94,2.82l-36.75,14.13c-1.98.76-4.11-.7-4.11-2.82v-15.59c0-1.25.77-2.37,1.94-2.82l36.75-14.13c1.98-.76,4.11.7,4.11,2.82Z"/></clipPath><linearGradient id="linear-gradient-41" x1="430.64" y1="198.46" x2="321.23" y2="228.88" xlink:href="#linear-gradient-36"/><linearGradient id="linear-gradient-42" x1="1878.3" y1="232.67" x2="1966.04" y2="408.54" gradientTransform="translate(2254.9) rotate(-180) scale(1 -1)" xlink:href="#linear-gradient-32"/><linearGradient id="linear-gradient-43" x1="1951.99" y1="250.55" x2="1951.99" y2="327.4" gradientTransform="translate(2254.9) rotate(-180) scale(1 -1)" xlink:href="#linear-gradient-5"/><linearGradient id="linear-gradient-44" x1="2018.64" y1="266.63" x2="1883.17" y2="475.98" gradientTransform="translate(2254.9) rotate(-180) scale(1 -1)" xlink:href="#linear-gradient-34"/><linearGradient id="linear-gradient-45" x1="1895.57" y1="259.4" x2="1970.49" y2="429.52" gradientTransform="translate(2254.9) rotate(-180) scale(1 -1)" xlink:href="#linear-gradient-35"/><linearGradient id="linear-gradient-46" x1="2007.39" y1="297.01" x2="1907.78" y2="324.71" gradientTransform="translate(2254.9) rotate(-180) scale(1 -1)" xlink:href="#linear-gradient-36"/><linearGradient id="linear-gradient-47" x1="2007.39" y1="324.72" x2="1907.78" y2="352.42" gradientTransform="translate(2254.9) rotate(-180) scale(1 -1)" xlink:href="#linear-gradient-36"/><linearGradient id="linear-gradient-48" x1="2007.39" y1="352.38" x2="1907.78" y2="380.08" gradientTransform="translate(2254.9) rotate(-180) scale(1 -1)" xlink:href="#linear-gradient-36"/><clipPath id="clippath-3"><path class="cls-12" d="M259.39,347.57v14.2c0,1.14.7,2.16,1.76,2.57l33.46,12.87c1.8.69,3.74-.64,3.74-2.57v-14.2c0-1.14-.7-2.16-1.76-2.57l-33.46-12.87c-1.8-.69-3.74.64-3.74,2.57Z"/></clipPath><linearGradient id="linear-gradient-49" x1="2006.28" y1="351.19" x2="1906.66" y2="378.89" gradientTransform="translate(2254.9) rotate(-180) scale(1 -1)" xlink:href="#linear-gradient-36"/><clipPath id="clippath-4"><path class="cls-12" d="M259.39,319.91v14.2c0,1.14.7,2.16,1.76,2.57l33.46,12.87c1.8.69,3.74-.64,3.74-2.57v-14.2c0-1.14-.7-2.16-1.76-2.57l-33.46-12.87c-1.8-.69-3.74.64-3.74,2.57Z"/></clipPath><linearGradient id="linear-gradient-50" x1="2006.28" y1="323.57" x2="1906.66" y2="351.27" gradientTransform="translate(2254.9) rotate(-180) scale(1 -1)" xlink:href="#linear-gradient-36"/><clipPath id="clippath-5"><path class="cls-12" d="M259.39,292.2v14.2c0,1.14.7,2.16,1.76,2.57l33.46,12.87c1.8.69,3.74-.64,3.74-2.57v-14.2c0-1.14-.7-2.16-1.76-2.57l-33.46-12.87c-1.8-.69-3.74.64-3.74,2.57Z"/></clipPath><linearGradient id="linear-gradient-51" x1="2006.29" y1="296.15" x2="1906.68" y2="323.85" gradientTransform="translate(2254.9) rotate(-180) scale(1 -1)" xlink:href="#linear-gradient-36"/><linearGradient id="linear-gradient-52" x1="423.28" y1="250.98" x2="532.85" y2="250.98" xlink:href="#linear-gradient-19"/><linearGradient id="linear-gradient-53" x1="407.81" y1="249.65" x2="579.16" y2="212.17" xlink:href="#linear-gradient-19"/><linearGradient id="linear-gradient-54" x1="423.28" y1="235.07" x2="532.85" y2="235.07" xlink:href="#linear-gradient-19"/><linearGradient id="linear-gradient-55" x1="407.81" y1="233.74" x2="579.16" y2="196.25" xlink:href="#linear-gradient-19"/><linearGradient id="linear-gradient-56" x1="423.28" y1="219.11" x2="532.85" y2="219.11" xlink:href="#linear-gradient-19"/><linearGradient id="linear-gradient-57" x1="407.81" y1="217.78" x2="579.16" y2="180.3" xlink:href="#linear-gradient-19"/><linearGradient id="linear-gradient-58" x1="471.7" y1="267.28" x2="424.4" y2="296.8" gradientUnits="userSpaceOnUse"><stop offset=".29" stop-color="#151c2b" stop-opacity="0"/><stop offset=".47" stop-color="rgba(21,28,43,.09)" stop-opacity=".09"/><stop offset=".64" stop-color="rgba(21,28,43,.36)" stop-opacity=".36"/><stop offset=".81" stop-color="rgba(21,28,43,.81)" stop-opacity=".81"/><stop offset=".87" stop-color="#151c2b"/></linearGradient><linearGradient id="linear-gradient-59" x1="442.2" y1="350.45" x2="586.71" y2="350.45" xlink:href="#linear-gradient-19"/><linearGradient id="linear-gradient-60" x1="421.81" y1="348.7" x2="647.77" y2="299.27" xlink:href="#linear-gradient-19"/><linearGradient id="linear-gradient-61" x1="442.2" y1="329.46" x2="586.71" y2="329.46" xlink:href="#linear-gradient-19"/><linearGradient id="linear-gradient-62" x1="421.81" y1="327.71" x2="647.77" y2="278.28" xlink:href="#linear-gradient-19"/><linearGradient id="linear-gradient-63" x1="442.2" y1="308.42" x2="586.71" y2="308.42" xlink:href="#linear-gradient-19"/><linearGradient id="linear-gradient-64" x1="421.81" y1="306.67" x2="647.77" y2="257.24" xlink:href="#linear-gradient-19"/><linearGradient id="linear-gradient-65" x1="511.07" y1="323.42" x2="426.22" y2="323.42" gradientUnits="userSpaceOnUse"><stop offset=".02" stop-color="#151c2b" stop-opacity="0"/><stop offset=".28" stop-color="rgba(21,28,43,.09)" stop-opacity=".09"/><stop offset=".54" stop-color="rgba(21,28,43,.36)" stop-opacity=".36"/><stop offset=".79" stop-color="rgba(21,28,43,.81)" stop-opacity=".81"/><stop offset=".87" stop-color="#151c2b"/></linearGradient><linearGradient id="linear-gradient-66" x1="1897.87" y1="297.68" x2="1951.45" y2="405.07" gradientTransform="translate(2254.9) rotate(-180) scale(1 -1)" xlink:href="#linear-gradient-27"/><linearGradient id="linear-gradient-67" x1="2057.75" y1="280.43" x2="2121.12" y2="407.45" gradientTransform="translate(2539.06) rotate(-180) scale(1 -1)" xlink:href="#linear-gradient-32"/><linearGradient id="linear-gradient-68" x1="2116.01" y1="289.77" x2="2116.01" y2="361.8" gradientTransform="translate(2539.06) rotate(-180) scale(1 -1)" xlink:href="#linear-gradient-5"/><linearGradient id="linear-gradient-69" x1="2169.65" y1="304.24" x2="2070.36" y2="457.68" gradientTransform="translate(2539.06) rotate(-180) scale(1 -1)" xlink:href="#linear-gradient-34"/><linearGradient id="linear-gradient-70" x1="2071.16" y1="302.04" x2="2122.94" y2="419.62" gradientTransform="translate(2539.06) rotate(-180) scale(1 -1)" xlink:href="#linear-gradient-35"/><linearGradient id="linear-gradient-71" x1="2167.94" y1="333.31" x2="2074.58" y2="359.28" gradientTransform="translate(2539.06) rotate(-180) scale(1 -1)" xlink:href="#linear-gradient-36"/><linearGradient id="linear-gradient-72" x1="2167.94" y1="359.29" x2="2074.58" y2="385.25" gradientTransform="translate(2539.06) rotate(-180) scale(1 -1)" xlink:href="#linear-gradient-36"/><clipPath id="clippath-6"><path class="cls-12" d="M382.26,354.78v13.31c0,1.07.66,2.02,1.65,2.41l31.36,12.06c1.69.65,3.51-.6,3.51-2.41v-13.31c0-1.07-.66-2.02-1.65-2.41l-31.36-12.06c-1.69-.65-3.51.6-3.51,2.41Z"/></clipPath><linearGradient id="linear-gradient-73" x1="2166.9" y1="358.21" x2="2073.53" y2="384.17" gradientTransform="translate(2539.06) rotate(-180) scale(1 -1)" xlink:href="#linear-gradient-36"/><clipPath id="clippath-7"><path class="cls-12" d="M382.26,328.81v13.31c0,1.07.66,2.02,1.65,2.41l31.36,12.06c1.69.65,3.51-.6,3.51-2.41v-13.31c0-1.07-.66-2.02-1.65-2.41l-31.36-12.06c-1.69-.65-3.51.6-3.51,2.41Z"/></clipPath><linearGradient id="linear-gradient-74" x1="2166.91" y1="332.51" x2="2073.54" y2="358.47" gradientTransform="translate(2539.06) rotate(-180) scale(1 -1)" xlink:href="#linear-gradient-36"/><linearGradient id="linear-gradient-75" x1="2169.65" y1="304.24" x2="2070.36" y2="457.68" gradientTransform="translate(2539.06) rotate(-180) scale(1 -1)" xlink:href="#linear-gradient-27"/><linearGradient id="linear-gradient-76" x1="309.3" y1="301.15" x2="372.67" y2="428.17" xlink:href="#linear-gradient-32"/><linearGradient id="linear-gradient-77" x1="367.56" y1="310.49" x2="367.56" y2="382.51" xlink:href="#linear-gradient-5"/><linearGradient id="linear-gradient-78" x1="421.2" y1="324.96" x2="321.91" y2="478.4" xlink:href="#linear-gradient-34"/><linearGradient id="linear-gradient-79" x1="322.7" y1="322.75" x2="374.48" y2="440.34" xlink:href="#linear-gradient-35"/><linearGradient id="linear-gradient-80" x1="419.48" y1="354.03" x2="326.12" y2="379.99" xlink:href="#linear-gradient-36"/><linearGradient id="linear-gradient-81" x1="419.48" y1="380" x2="326.12" y2="405.97" xlink:href="#linear-gradient-36"/><clipPath id="clippath-8"><path class="cls-12" d="M408.35,375.5v13.31c0,1.07-.66,2.02-1.65,2.41l-31.36,12.06c-1.69.65-3.51-.6-3.51-2.41v-13.31c0-1.07.66-2.02,1.65-2.41l31.36-12.06c1.69-.65,3.51.6,3.51,2.41Z"/></clipPath><linearGradient id="linear-gradient-82" x1="418.44" y1="378.93" x2="325.08" y2="404.89" xlink:href="#linear-gradient-36"/><clipPath id="clippath-9"><path class="cls-12" d="M408.35,349.52v13.31c0,1.07-.66,2.02-1.65,2.41l-31.36,12.06c-1.69.65-3.51-.6-3.51-2.41v-13.31c0-1.07.66-2.02,1.65-2.41l31.36-12.06c1.69-.65,3.51.6,3.51,2.41Z"/></clipPath><linearGradient id="linear-gradient-83" x1="418.45" y1="353.23" x2="325.09" y2="379.19" xlink:href="#linear-gradient-36"/></defs><rect class="cls-17" y="0" width="742" height="425"/><rect class="cls-14" y="0" width="742" height="425"/><path class="cls-46" d="M367.56,410.78s-202.49-75.6-202.49-75.6l173.14-67.05,155.8,53.15-126.45,89.5"/><polyline class="cls-94" points="457.73 98.69 448.16 117.92 456.51 114.06 447.8 131.91 456.51 127.27 447.8 144.03 457.73 140.72 447.8 157.99 456.51 153.68 447.8 170.69 456.51 166.88 447.41 182.88 456.51 179.49 447.41 196.59 456.51 193.8 447.8 207.15"/><polyline class="cls-94" points="435.14 100.59 448.16 117.92 435.14 113.6 447.8 131.91 435.14 126.22 447.8 144.03 435.14 139.38 447.8 157.99 435.14 152.92 447.8 170.69 435.14 166.23 447.41 182.88 435.14 178.29 447.41 196.59 435.14 191.77 447.41 207.78"/><path class="cls-53" d="M294.18,313.84l-85.34-31.2s3.2-18.38,44.72-19.18l51.92,16.06-34.77,24.38"/><path class="cls-88" d="M362.32,224.32h0s-8.8-3.73-8.8-3.73l-6.06.06c-.09-.08-.37-.15-.65-.15l-78.05-.71c-.29,0-.47.07-.4.15.03.04.11.07.21.1l-4.24,1.22s-.03,0-.05-.01c-.03,0-.06-.02-.1-.02-.01,0-.02,0-.03,0-.02,0-.05,0-.07,0-.03,0-.05,0-.08-.01-.01,0-.02,0-.03,0-.04,0-.07,0-.1,0-.03,0-.07,0-.1,0-.03,0-.06,0-.08,0-.03,0-.06,0-.08.01-.02,0-.04.01-.05.02-.02,0-.04.01-.05.02,0,0-.01,0-.01,0l-62.3,54.92-5.53,2.18c-.07.01-.12.03-.14.06l-3.8,1.5.94,6.43,12.18.32,7.49-3.13,35.7-14.1,10.61-.1.82-.33,19.23,8.14-5.92.2-3.28.81,4.21,1.78,20.15,3.06-25.9,22.39c-.06.05.06.13.28.16.13.02.27.02.37,0,.06,0,.11-.02.14-.05l25.69-22.21,54.56,21.43c.15.06.39.08.56.06,0,0,0,0,.01,0,.17-.03.19-.1.04-.16l-50.69-19.91,11.98,3.88c.15.05.37.07.53.05.02,0,.03,0,.05,0,.15-.03.13-.11-.04-.16l-16.22-5.25,96.95,4.67c.08,0,.15,0,.21,0,.11-.02.17-.05.15-.09-.02-.06-.23-.12-.45-.14l-97.73-4.7,2.89-3.51.95-.86-4.56-1.93-12.44.41-20.33-8.61,11.03-4.36-3.89-1.65-2.35.02,8.7-3.44c.07,0,.14-.01.18-.03.04-.02.05-.04.05-.06l10.34-4.09c.1,0,.18,0,.24-.03.05-.02.05-.05.03-.07l8.43-3.33,3.53,1.5-1.55.61,2.13.9,33.34-.31,97.49,41.29,2.92-.42-8.75-3.7,26.52,3.89.26-.27-27.9-4.09-.14-.06,15.89-.11,6.62,2.8,2.92-.42-6.66-2.82,6.21-2.04,2.24,6.52,1.09.06-2.26-6.56,8.39,3.55,2.92-.42-98.93-41.9,2.96-1.17-1.71-.73,8.53-3.37-2.13-.9-16.11.15-5.89-2.5-16,.15-4.68-1.98,20.2-7.96.99.42,16.31-.15,8.63-3.41-7.16-3.03-3.19.03,1.69-.67h0ZM432.52,281.85l-6.32,2.43-.83-.35-3.69-6.67,10.85,4.59ZM200.9,283.34l-7.34-3.11,5.75-.05,3.19-.03.48,2.53-1.66.65h-.44ZM346.05,258.83l15.3-.36,11.13,4.71-26.09-4.2-.34-.15ZM212.71,272.45l7.67.12-3.79,1.5-3.88-1.61ZM263.8,253.51c.13.01.25,0,.34,0,.12-.02.2-.05.2-.1v-.14s4.72.07,4.72.07l-4,1.58-4-1.69,2.18.03v.07c0,.08.24.17.54.19ZM298.64,237.6l-26.96-13.05,31.58,11.32-.68.27-3.69,1.46h-.24ZM346.53,222.75l-1.87.74-4.06-1.72,3.45-.07,2.48,1.05ZM354.42,225.05l-4.67.04,1.1-.43,3.57.39ZM334.3,230.58l-3.7-.35,4.6-1.81,2.22.94-3.12,1.23ZM338.15,229.66l3.92,1.66-6.55-.62,2.63-1.04ZM316.3,242.47l.36-.14s.08,0,.1-.02c.02,0,.02-.02.02-.03l1.77-.7,2.01.85-4.26.04ZM276.29,253.72l-4.07-.44,4.46-1.76,2.5,1.06-2.9,1.15ZM279.92,252.89l3.92,1.66-6.36-.69,2.44-.97ZM271.06,255.79l-4.07-.44,4.33-1.71,2.5,1.06-2.77,1.09ZM274.56,255l3.71,1.57-6.02-.66,2.31-.91ZM265.71,257.9l-4.07-.44,4.44-1.76,2.5,1.06-2.88,1.14ZM269.33,257.07l3.89,1.65-6.31-.69,2.43-.96ZM233.22,270.74l-4.25-.37,3.35-1.32,1.27.54,2.61-.02h0s-2.99,1.18-2.99,1.18ZM236.94,269.87l3.56,1.51-6.04-.53,2.48-.98ZM227.8,272.88l-4.16-.41,4.55-1.8,2.5,1.06-2.89,1.14ZM231.43,272.05l3.64,1.54-6.05-.59,2.41-.95ZM222.59,274.94l-4.07-.44,4.31-1.7,2.5,1.06-2.75,1.09ZM226.07,274.16l3.68,1.56-5.98-.65,2.3-.91ZM217.33,277.02l-4.09-.43,4.38-1.73,2.5,1.06-2.79,1.1ZM220.86,276.22l3.69,1.56-6.02-.64,2.33-.92ZM212.14,279.07l-4.17-.4,4.49-1.78,2.5,1.06-2.82,1.12ZM215.69,278.26l3.49,1.49-5.83-.57,2.34-.92ZM213.1,276.79l3.78.4-1.47.58-2.31-.98ZM218.06,274.68h0s4.07.44,4.07.44l-1.57.62-2.5-1.06ZM223.43,272.68l3.91.38-1.56.62-2.35-1ZM248.51,262.65l1.62-.64,1.44.61-3.07.03ZM228.82,270.58l3.93.34-1.61.64-2.32-.98ZM253.82,262.6h-1.41s-1.84-.77-1.84-.77l.12-.05,4.07.44-.94.37ZM255.95,262.36l1.87.2-2.44.02.57-.23ZM261.2,257.64l4.07.44-1.63.64-2.5-1.06.07-.03ZM266.53,255.53h0s4.07.44,4.07.44l-1.57.62-2.5-1.06ZM271.77,253.46h0s4.07.44,4.07.44l-1.57.62-2.5-1.06ZM277.13,251.34h.03s4.17.39,4.17.39l-1.7.67-2.5-1.06ZM275.67,250.72l-4-1.69,8.24.02-4.25,1.68ZM277.08,246.82c1.2.03,4.67.17,7.69.3l-3.59,1.42c-1.56-.64-3.44-1.42-4.1-1.72ZM308,241.19h-.01s-2.5-1.06-2.5-1.06l2.87-1.13,2.5,1.06-2.87,1.13ZM311.6,240.37l3.87,1.64-6.28-.69,2.41-.95ZM298.03,243.08s0,.06.08.08l1.8.76-3.36,1.33-3.23-.31,4.71-1.86ZM300.35,243.75l-1.02-.43,1.69.17-.67.27ZM303.3,242.59l-1.81.72-3.03-.3c-.09,0-.17,0-.24,0l4.67-1.84,2.5,1.06-.9.35h-1.2ZM292.86,245.13l3.23.31-1.32.52-1.94-.82h.03ZM306.05,242.56l.08-.03.07.03h-.15ZM306.57,242.36l1.57-.62,1.86.79-2.97.03-.46-.2ZM305.83,242.05l-2.5-1.06.15-.06,3.69.4.23.1-1.57.62ZM303.94,240.75l.97-.38,1.55.66-2.52-.27ZM307.12,238.06l.29.12-.06.02-.35-.15h.12ZM308.86,238.85l.16.02,2.06.87h0s0,0,0,0l.29.12h0s-.06.02-.06.02l-2.45-1.04ZM306.16,238.07l.74.31-.33.13-5.07-.07-.77-.33,5.43-.05ZM306,238.74l-1.97.78-1.96-.83,3.93.05ZM296.57,242.46l-3.98-1.68h8.23s-4.25,1.68-4.25,1.68ZM291.36,244.52l-3.93-1.66,7.89.1-3.96,1.57ZM286.17,246.57l-3.96-1.68,7.92.11-3.96,1.56ZM292.38,245.31l1.94.82-3.29,1.3-3.15-.34,4.5-1.78ZM290.58,247.61l-1.01.4-1.63-.69,2.64.29ZM311.12,242.52l-2.39-1.01h0s6.66.72,6.66.72l-.64.25-3.64.03ZM316.14,241.93l-4.1-1.74.06-.02,3.07-.03,2.66,1.13-1.68.67ZM317.33,236.79l-1.62-.69.49-.19,2.22.94-.12.05-.97-.11ZM319.73,236.92l2.13-.84,3.81,1.61-5.55-.61-.4-.17ZM319,236.61l-2.22-.94,2.13-.84,2.22.94-2.13.84ZM324.85,232.49l3.6.39-1.45.57-2.22-.94.07-.03ZM319.5,234.72l3.5.32-1.42.56-2.07-.88ZM319.72,234.51l4.62-1.82,2.22.94-3.1,1.22-3.74-.34ZM327.29,233.94l3.78,1.6-6.38-.58,2.6-1.02ZM327.74,233.77l1.91-.75,6.65.73-4.47,1.76-4.1-1.73ZM330.1,232.84l2.51-.99,4.02,1.7-6.53-.71ZM328.91,232.71l-3.6-.39,4.35-1.72,2.22.94-2.97,1.17ZM330.1,230.42h.04s3.7.34,3.7.34l-1.52.6-2.22-.94ZM342.61,227.05l-1.9-.8.25-.1,3.08.34-1.43.57ZM342.16,227.22l-3.24,1.28-3.09-.34,4.43-1.75,1.9.8ZM336.07,228.42l2.91.32-1.12.44-1.79-.76ZM348.35,225.04l-2.1-.89,3.42.37-1.31.52ZM347.65,225.11h-.14s-3.02,1.19-3.02,1.19l-3.08-.34,4.28-1.69,1.96.83ZM339.24,225.62l-3.99-1.69,8.03.1-4.04,1.59ZM334.17,227.62l-3.98-1.69,8.18.03-4.2,1.65ZM328.64,229.81l-4.05-1.71,8.29.04-4.25,1.68ZM323.33,231.9l-3.9-1.65,7.94.06-4.04,1.59ZM317.89,234.04l-4.04-1.71,8.28.04-4.24,1.67ZM315.22,235.09l-2.05-.67,3.4.14-1.35.53ZM314.66,235.32l-.16.06-2.66.03-2.7-1.14,2.62.1,2.9.95ZM299.34,238.01l.99.42-1.98-.03.99-.39ZM297.78,238.63l3.11.04,2.55,1.08-1.57.62-4.1-1.74h.01ZM301.43,240.54h-.01s-8.48,0-8.48,0l4.39-1.74,4.1,1.74ZM296.13,242.64l-.23.09-8.24-.1,4.37-1.73,4.1,1.74ZM290.92,244.69l-.23.09-8.2-.12,4.32-1.71,4.1,1.74ZM285.73,246.75l-.43.17c-4.18-.19-6.46-.28-7.71-.31l4.04-1.59,4.1,1.74ZM280.75,248.71l-.25.1-8.46-.02,4.58-1.81c.58.26,1.77.77,4.13,1.73ZM275.22,250.9l-.25.1-8.38-.05,4.53-1.79,4.1,1.74ZM274.39,251.23l-4.09,1.61-3.92-1.66,8,.04ZM259.66,257.04l-3.99-1.69,8.13.05-4.14,1.63ZM254.57,259.06l-3.92-1.72,7.9.15-3.98,1.57ZM249.11,261.22l-4-1.7,8.37-.03-4.37,1.73ZM245.4,262.68l-2.46.02-.65.26-2.63-1.12c4.07-.02,6.51-.03,8-.06l-2.25.89ZM236.68,265.18l-2.79-1.18,5.82-.02-3.03,1.2ZM231.52,267.21l-2.77-1.17,5.53.08-2.76,1.09ZM230.86,268.42l-3.69,1.46-3.92-1.66,6.96-.07.65.27ZM221.82,272l-3.74-1.58,7.57.07-3.83,1.51ZM211.44,276.1l-3.67-1.56,7.55.03-3.88,1.53ZM205.84,278.31l-3.6-1.58,7.84-.09-4.24,1.67ZM204.79,280.84l1.38.58-1.18.46-.2-1.05ZM204.84,279.9l2.19-.87,2.5,1.06-2.19.87-2.5-1.06ZM207.48,278.86h.03s4.17.39,4.17.39l-1.69.67-2.5-1.06ZM212.89,279.37l6.82.66-4.9,1.94-4.1-1.74,2.18-.86ZM216.13,278.09l1.94-.77,6.7.71-4.55,1.8-4.09-1.74ZM221.3,276.05l2.03-.8,6.66.73-4.58,1.81-4.1-1.74ZM226.52,273.99l2.04-.81,6.82.66-4.76,1.88-4.1-1.74ZM231.87,271.87l2.12-.84,6.95.61-4.98,1.97-4.1-1.74ZM237.38,269.69l.38-.15,8.71-.08-4.99,1.97-4.1-1.74ZM259.73,262.54l-3.34-.36,2.41-.95,3.06,1.3-2.14.02ZM255.21,262.05l-4.07-.44,4.43-1.75,2.5,1.06-2.87,1.13ZM256.02,259.68l.15-.06,4.07.44-1.71.68-2.5-1.06ZM256.62,259.45l4.07-1.61,2.5,1.06-2.51.99-4.07-.44ZM263.92,259.21l3.29,1.39-5.34-.58,2.05-.81ZM266.45,258.21l6.66.73-4.65,1.84-4.1-1.74,2.09-.82ZM269.77,256.9l2.03-.8,6.66.73-4.58,1.81-4.1-1.74ZM275,254.83l2.03-.8,6.66.73-4.58,1.81-4.1-1.74ZM280.36,252.71l2.18-.86,6.82.66-4.9,1.94-4.1-1.74ZM283.01,251.67l2.46-.97,3.7,1.57-6.15-.6ZM281.79,251.55l-4.17-.4,4.6-1.82,2.5,1.06-2.94,1.16ZM282.67,249.15h0s4.07.44,4.07.44l-1.57.62-2.5-1.06ZM283.13,248.97l4.06-1.6,1.94.82-1.66.66.56.24-.84.33-4.07-.44ZM288.77,249.39l.62.26-1-.11.38-.15ZM344.77,254l1.2-.47,3.63-.03,9.13,3.87-21.96-3.28,8-.08ZM422.25,284.26l-25.22-3.84-.24-.1,15.5-.28,9.96,4.22ZM409.92,279.04l-25.68-4.03-.22-.09,15.96-.08,9.93,4.2ZM372.47,270.02l26.32,4.3.47.2-15.96.08-10.82-4.58ZM397.58,273.81l-26.32-4.3-.32-.14,15.64-.22,11,4.66ZM384.22,268.16l-25.7-4.04-.16-.07,16.43.11,9.42,3.99ZM385.4,268.65l.45.19-15.64.22-10.51-4.45,25.7,4.04ZM411.1,279.54l.47.2-15.5.28-10.65-4.51,25.68,4.03ZM423.4,284.75h.02s-15.71.2-15.71.2l-9.53-4.04,25.22,3.84ZM415.26,279.65l5.35-2.4,3.37,6.09-8.72-3.69ZM402.97,274.44l4.99-2.57,4.67,6.66-9.66-4.09ZM389.66,268.8l6.61-2.31.85.36,3.55,6.61-11.02-4.67ZM377.81,263.79l4.71-2.66,4.46,6.55-9.17-3.88ZM365.05,258.38h.45s-.73-.12-.73-.12l-.21-.09,5.24-2.5,5.35,6.98-10.09-4.27ZM351.63,252.7l5.73-2.26,5.06,6.83-10.79-4.57ZM316.5,240.13l4.31-.04-2.28.9-2.03-.86ZM318.65,237.35l.38-.15.29.03,3.92,1.66-.49.19-4.1-1.73ZM320.85,237.4l4.83.53-1.86.73-2.97-1.26ZM322.31,235.91l1.92-.76,6.91.63-4.74,1.87-4.1-1.73ZM337.14,233.41l-4.1-1.73,2.01-.79,6.84.65-4.76,1.88ZM338.59,229.49l1.33-.53,4.1,1.73-1.33.53-4.1-1.73ZM356.34,225.03l-3.88-.42,7.19-.07-1.2.47-2.11.02ZM350.21,224.31l-.1.04-3.6-.39,1.49-.59,2.22.94h0ZM342.44,221.02l1.07.45-2.33.05,1.26-.5h0ZM344.22,223.66l-.37.14-8.24-.1,4.51-1.78,4.1,1.73ZM338.66,225.74l-8.12-.03,4.17-1.64,3.95,1.67ZM333.73,227.8l-.25.1-8.4-.04,4.55-1.8,4.1,1.73ZM328.19,229.98l-.25.1-8.34-.06,4.49-1.77,4.1,1.73ZM322.88,232.07l-.16.06-8.4-.04,4.46-1.76,4.1,1.73ZM317.45,234.21l-.35.14-4.73-.19-1.8-.59,2.78-1.1,4.1,1.73ZM310.96,234.11l-1.57-.06.62-.25.95.31ZM311,235.41l-5.2.05,2.76-1.09,2.45,1.04ZM298.14,237.89l-1.27.5c-.1,0-.19.02-.22.05-.02.01-.02.03-.01.05l-32.27,12.75.19-29.61,33.59,16.26ZM265.76,251.28l4.1,1.74-.23.09-5.29-.07v-1.2s1.41-.56,1.41-.56ZM263.25,253.01l-1.82-.03,1.83-.72v.75ZM264.63,255.08l-.25.1-8.35-.06,4.5-1.78,4.1,1.74ZM259.22,257.22l-.12.05-8.1-.15,4.12-1.63,4.1,1.74ZM254.12,259.23l-.04.02-8.58.03,4.6-1.82,4.02,1.77ZM248.66,261.39l-.38.15c-1.87.03-5.75.06-8.67.07l4.95-1.96,4.1,1.74ZM241.85,263.13l-1.53.61-6.14.02,4.73-1.87,2.94,1.25ZM236.23,265.35l-1.38.55-5.88-.09,4.32-1.71,2.94,1.25ZM231.08,267.39l-1.34.53-6.26.06,4.65-1.84,2.94,1.25ZM226.73,270.06l-.51.2-8.3-.08,4.7-1.86,4.1,1.74ZM221.38,272.17l-.43.17-8.18-.12,4.51-1.78,4.1,1.74ZM212.01,272.51l4.14,1.72-.25.1-8.42-.03,4.53-1.79ZM211,276.27l-.3.12-8.62.1.11-.1,4.72-1.86,4.09,1.74ZM205.07,278.34l-5.11.02,1.71-1.51,3.4,1.49ZM205.16,278.58l-2.37.94-4.19.04,1.09-.96,5.47-.02ZM203.1,283.24l.02.08h-.23s.21-.08.21-.08ZM205.26,283.3l-.16-.85,1.8-.71,3.58,1.51-5.22.05ZM210.27,280.4l4.1,1.74-2.19.87-4.1-1.74,2.19-.87ZM262.71,262.52l-3.46-1.46,2.17-.86,6.66.73-4,1.58h-1.37ZM285.9,250.52l2.03-.8,2.18.24,2.76,1.17-2.86,1.13-4.1-1.74ZM359.87,257.84l.76.32-15.3.36-10.44-4.42,24.97,3.73ZM347.59,259.49l26.09,4.2.37.16-16.43-.11-10.03-4.25ZM408.44,285.26l15.71-.19,11.15,4.72-26.52-4.39-.33-.14ZM426.92,284.58l5.85-2.24,4.22,6.51-10.07-4.26ZM414.51,279.33l-.38-.16-5.09-7.26,11.33,4.8-5.86,2.63ZM407.65,271.32l-5.44,2.8-.17-.07-3.55-6.61,9.16,3.88ZM388.94,268.5l-.48-.2-4.88-7.17,11.97,5.07-6.61,2.31ZM377.03,263.46l-.34-.14-5.78-7.56,11.29,4.78-5.17,2.92ZM363.87,257.82l-5.44-7.34,11.04,4.68-5.6,2.67ZM341.56,220.76l-31.81,12.54-40.37-13.2,72.18.65ZM269.05,220.41l40.14,13.12-4.79,1.89-38.96-13.97,3.61-1.04ZM263.45,222.39l-.19,29.27-59.84,23.64,60.03-52.92ZM198.72,278.36h-1.52s2.75-1.08,2.75-1.08l-1.23,1.08ZM196.6,278.6h1.85s-1.1.96-1.1.96l-3.27.03,2.51-.99ZM203.69,286.34l-10-.26-.83-5.66,7.65,3.24,2.66-.03.51,2.7ZM205.72,285.69l-.39-2.07,5.48-.05-5.09,2.12ZM280.38,277.11l-.9.03-19.58-8.29.5-.2,19.98,8.46ZM420.72,290.46l-10.72-4.54,26.52,4.39.09.04-15.89.11ZM439.5,289.91l-1.06-.45-4.57-7.04,12.42,5.26-6.8,2.23ZM328.8,241.25l-2.86,1.13-4.04.04-2.63-1.12,3.92-1.55h0s0,0,0,0l1.08-.42,4.54,1.92Z"/><polygon class="cls-51" points="446.4 100.59 446.4 203.44 448.83 203.44 448.83 98.69 446.4 100.59"/><line class="cls-95" x1="368.94" y1="131.91" x2="368.94" y2="103.94"/><line class="cls-95" x1="367.8" y1="131" x2="367.8" y2="103.94"/><polygon class="cls-51" points="433.92 98.18 433.92 203.01 436.35 203.01 436.35 98.26 433.92 98.18"/><polygon class="cls-51" points="456.33 100.59 456.33 203.44 458.75 203.44 458.75 98.69 456.33 100.59"/><polygon class="cls-20" points="462.32 99.4 446.4 93.28 430.48 99.4 446.4 105.52 462.32 99.4"/><polygon class="cls-10" points="430.48 95.36 430.48 99.4 446.4 105.52 462.32 99.4 462.32 95.36 430.48 95.36"/><polygon class="cls-51" points="382.46 104.63 366.54 98.51 350.63 104.63 366.54 110.75 382.46 104.63"/><polygon class="cls-49" points="350.63 100.59 350.63 104.63 366.54 110.75 382.46 104.63 382.46 100.59 350.63 100.59"/><polygon class="cls-67" points="382.46 100.59 366.54 94.47 350.63 100.59 366.54 106.71 382.46 100.59"/><polygon class="cls-56" points="462.32 95.36 446.4 89.24 430.48 95.36 446.4 101.48 462.32 95.36"/><polygon class="cls-84" points="472.57 93.68 442.65 82.18 412.72 93.68 442.65 105.19 472.57 93.68"/><polygon class="cls-16" points="412.72 91.47 412.72 93.68 442.65 105.19 472.57 93.68 472.57 91.47 412.72 91.47"/><polygon class="cls-2" points="472.57 91.47 442.65 79.97 412.72 91.47 442.65 102.98 472.57 91.47"/><polygon class="cls-30" points="462.33 81.42 451.96 77.43 441.59 81.42 451.96 85.41 462.33 81.42"/><path class="cls-51" d="M451.45,64.55v20.36l-6.01,2.14v-20.18l6.01-2.31M452.16,63.52l-7.43,2.86v21.67l7.43-2.64v-21.89h0Z"/><path class="cls-51" d="M438.59,64.55l6.01,2.31v20.18l-6.01-2.14v-20.36M437.88,63.52v21.89l7.43,2.64v-21.67l-7.43-2.86h0Z"/><polygon class="cls-45" points="441.59 88.85 441.59 81.42 451.96 85.41 462.33 81.42 462.33 88.85 451.96 92.84 441.59 88.85"/><polygon class="cls-15" points="497.15 56.95 486.78 52.96 476.41 56.95 486.78 60.94 497.15 56.95"/><polygon class="cls-35" points="476.41 64.38 476.41 56.95 486.78 60.94 497.15 56.95 497.15 64.38 486.78 68.37 476.41 64.38"/><polygon class="cls-3" points="452.64 80.73 433.62 73.42 414.59 80.73 433.62 88.05 452.64 80.73"/><polygon class="cls-72" points="414.59 94.37 414.59 80.73 433.62 88.05 452.64 80.73 452.64 94.37 433.62 101.68 414.59 94.37"/><polygon class="cls-51" points="450.15 64.29 450.15 73.42 442.65 70.53 442.65 61.4 450.15 64.29"/><path class="cls-51" d="M310.09,113.67l6.09,2.34v7.61l-6.09-2.34v-7.61M309.38,112.64v9.13l7.51,2.89v-9.13l-7.51-2.89h0Z"/><polygon class="cls-51" points="497.15 46.26 497.15 55.39 489.64 52.5 489.64 43.37 497.15 46.26"/><path class="cls-51" d="M442.65,62.16l5.53,2.13-131.3,50.48-5.53-2.13,131.3-50.48M442.65,61.4l-133.27,51.24,7.51,2.89,133.27-51.24-7.51-2.89h0Z"/><path class="cls-51" d="M442.65,71.29l5.53,2.13-131.3,50.48-5.53-2.13,131.3-50.48M442.65,70.53l-133.27,51.24,7.51,2.89,133.27-51.24-7.51-2.89h0Z"/><path class="cls-51" d="M449.45,65.32v7.61l-131.85,50.7v-7.61l131.85-50.7M450.15,64.29l-133.27,51.24v9.13l133.27-51.24v-9.13h0Z"/><path class="cls-51" d="M489.64,44.13l5.53,2.13-45.02,17.27-5.53-2.13,45.02-17.27M489.64,43.37l-46.99,18.03,7.51,2.89,46.99-18.03-7.51-2.89h0Z"/><path class="cls-51" d="M489.64,52.96l5.53,2.13-45.02,17.27-5.53-2.13,45.02-17.27M489.64,52.2l-46.99,18.03,7.51,2.89,46.99-18.03-7.51-2.89h0Z"/><path class="cls-51" d="M496.44,47.29v7.61l-45.58,17.48v-7.61l45.58-17.48M497.15,46.26l-46.99,18.03v9.13l46.99-18.03v-9.13h0Z"/><path class="cls-51" d="M316.18,117.73v6.45l-6.54,2.66,6.54-9.11M316.89,115.53l-9.25,12.9,9.25-3.77v-9.13h0Z"/><path class="cls-51" d="M309.63,113.5l6.15,2.36-8.36,11.65-5.84-3.09,8.05-10.92M309.38,112.64l-8.85,12.02,7.11,3.77,9.25-12.9-7.51-2.89h0Z"/><polygon class="cls-51" points="452.16 63.52 444.73 60.66 437.3 63.52 444.73 66.37 452.16 63.52"/><path class="cls-51" d="M440.45,32.07l3.45,33.23-5.85-2.25,2.4-30.98M440.35,24.23l-3.05,39.29,7.43,2.86-4.38-42.14h0Z"/><path class="cls-51" d="M444.89,23.8l6.47,39.26-6.02,2.32-4.22-40.61,3.77-.96M445.46,22.93l-5.11,1.31,4.38,42.14,7.43-2.86-6.69-40.59h0Z"/><polygon class="cls-75" points="360.32 129.78 363.56 129.14 377.55 133.33 377.55 138.06 375.69 139.38 360.32 129.78"/><polygon class="cls-51" points="360.32 129.78 360.32 134.14 368.52 145.24 375.69 139.38 375.69 134.67 360.32 129.78"/><line class="cls-96" x1="445.46" y1="22.93" x2="492.96" y2="44.65"/><path class="cls-98" d="M494.19,47.1l-7.06-2.45v5.59l-6.51-3.06v5.02l-6.1-2.66v5.4l-6.64-2.92v5.47l-6.38-2.87v5.22l-6.52-2.86v5.68l-5.77-3.44v5.07l-6.91-2.47v5.59l-6.58-3.12v5.31l-6.37-2.7v5.39l-6.26-2.95v5.36l-6.24-3v5.74s-5.83-3.63-5.97-3.5,0,5.45,0,5.45l-6.66-2.85v5.41l-6.45-2.85v5.33l-6.29-3.01v5.43l-6.5-2.91v5.31l-6.02-3.01-.12,5.24-6.55-2.66v5.41c0,.19-6.8-2.58-6.8-2.58v5.19l-6.74-2.76v5.35l-6.2-2.97v5.12l-6.62-2.53v5.59l-6.44-2.95v5.37l-6.33-3.06.06,5.26-6.2-2.7v5.09s-6.65-2.5-6.65-2.5l-.1,4.47-6.17-2.53"/><line class="cls-96" x1="440.35" y1="24.23" x2="393.24" y2="82.81"/><line class="cls-96" x1="440.35" y1="24.23" x2="313.13" y2="114.09"/><polyline class="cls-98" points="493.41 56.51 487.13 50.24 487.13 58.71 480.62 52.2 480.62 61.47 474.54 55.39 474.54 63.52 467.88 57.49 467.88 66.22 461.5 59.84 461.5 68.37 454.98 62.66 454.98 70.95 448.83 64.8 448.83 73.42 442.31 67.41 442.31 76.18 435.72 69.6 435.72 78.58 429.81 73.11 429.81 80.84 423.09 74.69 423.09 83.68 416.85 77.43 416.85 85.35 410.88 79.39 410.88 88.05 404.22 81.95 404.22 90.87 397.78 84.43 397.78 93.14 391.49 86.85 391.49 95.74 384.99 89.24 384.99 97.62 378.85 91.47 378.85 100.58 372.3 94.03 372.3 103.06 365.67 96.44 365.67 105.6 359.47 99.4 359.47 107.91 352.55 101.58 352.55 110.31 345.93 104.63 345.93 112.96 339.49 107.05 339.49 115.52 333.22 109.25 333.22 117.92 327.03 111.85 326.99 120.1 320.5 114.14 320.5 122.85"/><path class="cls-4" d="M271.17,275.52v15.92c0,6.25,11.77,11.32,26.29,11.32s26.29-5.07,26.29-11.32v-15.92h-52.58Z"/><ellipse class="cls-44" cx="297.46" cy="275.52" rx="26.29" ry="11.32"/><path class="cls-50" d="M273.28,260.47v14.64c0,5.75,10.82,10.41,24.18,10.41s24.18-4.66,24.18-10.41v-14.64h-48.36Z"/><path class="cls-9" d="M271.17,255.79v15.92c0,6.25,11.77,11.32,26.29,11.32s26.29-5.07,26.29-11.32v-15.92h-52.58Z"/><ellipse class="cls-36" cx="297.46" cy="255.79" rx="26.29" ry="11.32"/><path class="cls-50" d="M273.28,240.73v14.64c0,5.75,10.82,10.41,24.18,10.41s24.18-4.66,24.18-10.41v-14.64h-48.36Z"/><path class="cls-31" d="M271.17,236v15.92c0,6.25,11.77,11.32,26.29,11.32s26.29-5.07,26.29-11.32v-15.92h-52.58Z"/><ellipse class="cls-69" cx="297.46" cy="236" rx="26.29" ry="11.32"/><ellipse class="cls-64" cx="297.46" cy="303.57" rx="24.68" ry="11.32"/><path class="cls-33" d="M430.74,287.55v12.84c0,5.04,9.49,9.13,21.2,9.13s21.2-4.09,21.2-9.13v-12.84h-42.41Z"/><ellipse class="cls-70" cx="451.95" cy="287.55" rx="21.2" ry="9.13"/><path class="cls-50" d="M432.45,275.41v11.81c0,4.64,8.73,8.39,19.5,8.39s19.5-3.76,19.5-8.39v-11.81h-39Z"/><path class="cls-57" d="M323.75,236c0-6.25-11.77-11.32-26.29-11.32s-26.29,5.07-26.29,11.32h0v15.92c0,.66.14,1.31.39,1.93-.25.63-.39,1.27-.39,1.93h0v15.92c0,.65.13,1.29.38,1.91-.25.62-.38,1.26-.38,1.91,0,6.25,11.77,11.32,26.29,11.32s26.29-5.07,26.29-11.32c0-.65-.13-1.29-.38-1.91.25-.62.38-1.26.38-1.91v-15.92c0-.66-.14-1.31-.39-1.93.25-.63.39-1.27.39-1.93v-15.92Z"/><path class="cls-82" d="M430.74,271.9v12.84c0,5.04,9.49,9.13,21.2,9.13s21.2-4.09,21.2-9.13v-12.84h-42.41Z"/><ellipse class="cls-79" cx="451.95" cy="271.9" rx="21.2" ry="9.13"/><path class="cls-50" d="M432.45,259.76v11.81c0,4.64,8.73,8.39,19.5,8.39s19.5-3.76,19.5-8.39v-11.81h-39Z"/><path class="cls-74" d="M430.74,255.98v12.84c0,5.04,9.49,9.13,21.2,9.13s21.2-4.09,21.2-9.13v-12.84h-42.41Z"/><ellipse class="cls-21" cx="451.95" cy="255.98" rx="21.2" ry="9.13"/><path class="cls-50" d="M432.45,243.84v11.81c0,4.64,8.73,8.39,19.5,8.39s19.5-3.76,19.5-8.39v-11.81h-39Z"/><ellipse class="cls-22" cx="451.95" cy="210.34" rx="20.88" ry="9.58"/><polygon class="cls-41" points="371 199.28 371 299.28 319.53 279.49 319.53 179.49 371 199.28"/><polygon class="cls-5" points="422.47 179.49 371 159.7 319.53 179.49 371 199.28 422.47 179.49"/><polygon class="cls-26" points="422.47 179.49 422.47 279.49 371 299.28 371 199.28 422.47 179.49"/><polygon class="cls-39" points="367.8 203.6 367.8 292.83 321.87 275.17 321.87 185.94 367.8 203.6"/><polygon class="cls-12" points="323.48 186.55 323.48 274.6 367.8 291.23 367.8 292.83 321.87 275.17 321.87 185.94 323.48 186.55"/><line class="cls-99" x1="327.65" y1="272.63" x2="327.73" y2="251.63"/><line class="cls-99" x1="330.61" y1="273.64" x2="330.68" y2="252.51"/><line class="cls-99" x1="333.59" y1="274.96" x2="333.67" y2="253.7"/><line class="cls-99" x1="336.61" y1="276.28" x2="336.69" y2="254.9"/><line class="cls-99" x1="339.67" y1="277.33" x2="339.75" y2="255.82"/><line class="cls-99" x1="342.77" y1="278.39" x2="342.85" y2="256.75"/><line class="cls-99" x1="346.72" y1="279.39" x2="346.8" y2="257.59"/><line class="cls-99" x1="349.91" y1="280.48" x2="349.99" y2="258.54"/><line class="cls-99" x1="353.12" y1="281.89" x2="353.21" y2="259.81"/><line class="cls-99" x1="356.38" y1="283.31" x2="356.47" y2="261.1"/><line class="cls-99" x1="359.69" y1="284.45" x2="359.77" y2="262.09"/><line class="cls-99" x1="363.04" y1="285.59" x2="363.12" y2="263.1"/><path class="cls-63" d="M418.8,194.12v15.59c0,1.25-.77,2.37-1.94,2.82l-36.75,14.13c-1.98.76-4.11-.7-4.11-2.82v-15.59c0-1.25.77-2.37,1.94-2.82l36.75-14.13c1.98-.76,4.11.7,4.11,2.82Z"/><path class="cls-89" d="M418.8,224.55v15.59c0,1.25-.77,2.37-1.94,2.82l-36.75,14.13c-1.98.76-4.11-.7-4.11-2.82v-15.59c0-1.25.77-2.37,1.94-2.82l36.75-14.13c1.98-.76,4.11.7,4.11,2.82Z"/><path class="cls-1" d="M418.8,254.93v15.59c0,1.25-.77,2.37-1.94,2.82l-36.75,14.13c-1.98.76-4.11-.7-4.11-2.82v-15.59c0-1.25.77-2.37,1.94-2.82l36.75-14.13c1.98-.76,4.11.7,4.11,2.82Z"/><path class="cls-93" d="M418.8,254.93v15.59c0,1.25-.77,2.37-1.94,2.82l-36.75,14.13c-1.98.76-4.11-.7-4.11-2.82v-15.59c0-1.25.77-2.37,1.94-2.82l36.75-14.13c1.98-.76,4.11.7,4.11,2.82Z"/><g class="cls-108"><path class="cls-52" d="M417.58,253.63v15.59c0,1.25-.77,2.37-1.94,2.82l-36.75,14.13c-1.98.76-4.11-.7-4.11-2.82v-15.59c0-1.25.77-2.37,1.94-2.82l36.75-14.13c1.98-.76,4.11.7,4.11,2.82Z"/></g><path class="cls-93" d="M418.8,224.55v15.59c0,1.25-.77,2.37-1.94,2.82l-36.75,14.13c-1.98.76-4.11-.7-4.11-2.82v-15.59c0-1.25.77-2.37,1.94-2.82l36.75-14.13c1.98-.76,4.11.7,4.11,2.82Z"/><g class="cls-105"><path class="cls-28" d="M417.58,223.29v15.59c0,1.25-.77,2.37-1.94,2.82l-36.75,14.13c-1.98.76-4.11-.7-4.11-2.82v-15.59c0-1.25.77-2.37,1.94-2.82l36.75-14.13c1.98-.76,4.11.7,4.11,2.82Z"/></g><path class="cls-93" d="M418.8,194.12v15.59c0,1.25-.77,2.37-1.94,2.82l-36.75,14.13c-1.98.76-4.11-.7-4.11-2.82v-15.59c0-1.25.77-2.37,1.94-2.82l36.75-14.13c1.98-.76,4.11.7,4.11,2.82Z"/><g class="cls-102"><path class="cls-27" d="M417.59,193.18v15.59c0,1.25-.77,2.37-1.94,2.82l-36.75,14.13c-1.98.76-4.11-.7-4.11-2.82v-15.59c0-1.25.77-2.37,1.94-2.82l36.75-14.13c1.98-.76,4.11.7,4.11,2.82Z"/></g><path class="cls-32" d="M385.39,209.5c-.02,1.09-.76,2.13-1.65,2.34s-1.6-.51-1.58-1.6.76-2.13,1.65-2.34,1.6.51,1.58,1.6Z"/><path class="cls-32" d="M385.51,217.14c-.02,1.09-.76,2.13-1.65,2.34s-1.6-.51-1.58-1.6.76-2.13,1.65-2.34,1.6.51,1.58,1.6Z"/><path class="cls-32" d="M391.11,207.41c-.02,1.09-.76,2.13-1.65,2.34s-1.6-.51-1.58-1.6.76-2.13,1.65-2.34,1.6.51,1.58,1.6Z"/><path class="cls-32" d="M391.23,215.05c-.02,1.09-.76,2.13-1.65,2.34s-1.6-.51-1.58-1.6.76-2.13,1.65-2.34,1.6.51,1.58,1.6Z"/><path class="cls-32" d="M396.82,205.13c-.02,1.09-.76,2.13-1.65,2.34s-1.6-.51-1.58-1.6.76-2.13,1.65-2.34,1.6.51,1.58,1.6Z"/><path class="cls-32" d="M396.94,212.77c-.02,1.09-.76,2.13-1.65,2.34s-1.6-.51-1.58-1.6.76-2.13,1.65-2.34,1.6.51,1.58,1.6Z"/><path class="cls-32" d="M402.25,203.22c-.02,1.09-.76,2.13-1.65,2.34s-1.6-.51-1.58-1.6.76-2.13,1.65-2.34,1.6.51,1.58,1.6Z"/><path class="cls-32" d="M402.37,210.86c-.02,1.09-.76,2.13-1.65,2.34s-1.6-.51-1.58-1.6c.02-1.09.76-2.13,1.65-2.34s1.6.51,1.58,1.6Z"/><path class="cls-32" d="M407.56,201.14c-.02,1.09-.76,2.13-1.65,2.34s-1.6-.51-1.58-1.6.76-2.13,1.65-2.34,1.6.51,1.58,1.6Z"/><path class="cls-32" d="M407.68,208.78c-.02,1.09-.76,2.13-1.65,2.34s-1.6-.51-1.58-1.6.76-2.13,1.65-2.34,1.6.51,1.58,1.6Z"/><path class="cls-32" d="M413.04,199.42c-.02,1.09-.76,2.13-1.65,2.34s-1.6-.51-1.58-1.6c.02-1.09.76-2.13,1.65-2.34s1.6.51,1.58,1.6Z"/><path class="cls-32" d="M413.16,207.07c-.02,1.09-.76,2.13-1.65,2.34s-1.6-.51-1.58-1.6.76-2.13,1.65-2.34,1.6.51,1.58,1.6Z"/><path class="cls-32" d="M385.39,239.58c-.02,1.09-.76,2.13-1.65,2.34s-1.6-.51-1.58-1.6.76-2.13,1.65-2.34,1.6.51,1.58,1.6Z"/><path class="cls-32" d="M385.51,247.22c-.02,1.09-.76,2.13-1.65,2.34s-1.6-.51-1.58-1.6.76-2.13,1.65-2.34,1.6.51,1.58,1.6Z"/><path class="cls-32" d="M391.11,237.49c-.02,1.09-.76,2.13-1.65,2.34s-1.6-.51-1.58-1.6.76-2.13,1.65-2.34,1.6.51,1.58,1.6Z"/><path class="cls-32" d="M391.23,245.13c-.02,1.09-.76,2.13-1.65,2.34s-1.6-.51-1.58-1.6.76-2.13,1.65-2.34,1.6.51,1.58,1.6Z"/><path class="cls-32" d="M396.82,235.21c-.02,1.09-.76,2.13-1.65,2.34s-1.6-.51-1.58-1.6.76-2.13,1.65-2.34,1.6.51,1.58,1.6Z"/><path class="cls-32" d="M396.94,242.85c-.02,1.09-.76,2.13-1.65,2.34s-1.6-.51-1.58-1.6.76-2.13,1.65-2.34,1.6.51,1.58,1.6Z"/><path class="cls-32" d="M402.25,233.3c-.02,1.09-.76,2.13-1.65,2.34s-1.6-.51-1.58-1.6.76-2.13,1.65-2.34,1.6.51,1.58,1.6Z"/><path class="cls-32" d="M402.37,240.94c-.02,1.09-.76,2.13-1.65,2.34s-1.6-.51-1.58-1.6c.02-1.09.76-2.13,1.65-2.34s1.6.51,1.58,1.6Z"/><path class="cls-32" d="M407.56,231.22c-.02,1.09-.76,2.13-1.65,2.34s-1.6-.51-1.58-1.6.76-2.13,1.65-2.34,1.6.51,1.58,1.6Z"/><path class="cls-32" d="M407.68,238.86c-.02,1.09-.76,2.13-1.65,2.34s-1.6-.51-1.58-1.6.76-2.13,1.65-2.34,1.6.51,1.58,1.6Z"/><path class="cls-32" d="M413.04,229.51c-.02,1.09-.76,2.13-1.65,2.34s-1.6-.51-1.58-1.6c.02-1.09.76-2.13,1.65-2.34s1.6.51,1.58,1.6Z"/><path class="cls-32" d="M413.16,237.15c-.02,1.09-.76,2.13-1.65,2.34s-1.6-.51-1.58-1.6.76-2.13,1.65-2.34,1.6.51,1.58,1.6Z"/><path class="cls-32" d="M385.39,269.76c-.02,1.09-.76,2.13-1.65,2.34s-1.6-.51-1.58-1.6.76-2.13,1.65-2.34,1.6.51,1.58,1.6Z"/><path class="cls-32" d="M385.51,277.4c-.02,1.09-.76,2.13-1.65,2.34s-1.6-.51-1.58-1.6.76-2.13,1.65-2.34,1.6.51,1.58,1.6Z"/><path class="cls-32" d="M391.11,267.67c-.02,1.09-.76,2.13-1.65,2.34s-1.6-.51-1.58-1.6.76-2.13,1.65-2.34,1.6.51,1.58,1.6Z"/><path class="cls-32" d="M391.23,275.31c-.02,1.09-.76,2.13-1.65,2.34s-1.6-.51-1.58-1.6.76-2.13,1.65-2.34,1.6.51,1.58,1.6Z"/><path class="cls-32" d="M396.82,265.39c-.02,1.09-.76,2.13-1.65,2.34s-1.6-.51-1.58-1.6.76-2.13,1.65-2.34,1.6.51,1.58,1.6Z"/><path class="cls-32" d="M396.94,273.03c-.02,1.09-.76,2.13-1.65,2.34s-1.6-.51-1.58-1.6.76-2.13,1.65-2.34,1.6.51,1.58,1.6Z"/><path class="cls-32" d="M402.25,263.48c-.02,1.09-.76,2.13-1.65,2.34s-1.6-.51-1.58-1.6.76-2.13,1.65-2.34,1.6.51,1.58,1.6Z"/><path class="cls-32" d="M402.37,271.12c-.02,1.09-.76,2.13-1.65,2.34s-1.6-.51-1.58-1.6c.02-1.09.76-2.13,1.65-2.34s1.6.51,1.58,1.6Z"/><path class="cls-32" d="M407.56,261.4c-.02,1.09-.76,2.13-1.65,2.34s-1.6-.51-1.58-1.6.76-2.13,1.65-2.34,1.6.51,1.58,1.6Z"/><path class="cls-32" d="M407.68,269.04c-.02,1.09-.76,2.13-1.65,2.34s-1.6-.51-1.58-1.6.76-2.13,1.65-2.34,1.6.51,1.58,1.6Z"/><path class="cls-32" d="M413.04,259.69c-.02,1.09-.76,2.13-1.65,2.34s-1.6-.51-1.58-1.6c.02-1.09.76-2.13,1.65-2.34s1.6.51,1.58,1.6Z"/><path class="cls-32" d="M413.16,267.33c-.02,1.09-.76,2.13-1.65,2.34s-1.6-.51-1.58-1.6.76-2.13,1.65-2.34,1.6.51,1.58,1.6Z"/><line class="cls-97" x1="368.52" y1="145.24" x2="371" y2="199.28"/><line class="cls-97" x1="368.52" y1="145.24" x2="319.53" y2="179.49"/><line class="cls-97" x1="368.52" y1="145.24" x2="422.47" y2="179.49"/><line class="cls-97" x1="368.52" y1="145.24" x2="371" y2="159.7"/><polygon class="cls-13" points="302.91 296.9 302.91 387.95 349.77 369.93 349.77 278.88 302.91 296.9"/><polygon class="cls-34" points="256.05 278.88 302.91 260.86 349.77 278.88 302.91 296.9 256.05 278.88"/><polygon class="cls-76" points="256.05 278.88 256.05 369.93 302.91 387.95 302.91 296.9 256.05 278.88"/><polygon class="cls-48" points="305.82 300.83 305.82 382.08 347.64 366 347.64 284.75 305.82 300.83"/><polygon class="cls-12" points="346.18 285.31 346.18 365.48 305.82 380.62 305.82 382.08 347.64 366 347.64 284.75 346.18 285.31"/><line class="cls-100" x1="342.38" y1="363.69" x2="342.31" y2="344.56"/><line class="cls-100" x1="339.69" y1="364.61" x2="339.62" y2="345.37"/><line class="cls-100" x1="336.97" y1="365.8" x2="336.9" y2="346.45"/><line class="cls-100" x1="334.22" y1="367.01" x2="334.15" y2="347.54"/><line class="cls-100" x1="331.43" y1="367.97" x2="331.36" y2="348.38"/><line class="cls-100" x1="328.61" y1="368.93" x2="328.54" y2="349.23"/><line class="cls-100" x1="325.01" y1="369.84" x2="324.94" y2="349.99"/><line class="cls-100" x1="322.11" y1="370.84" x2="322.04" y2="350.86"/><line class="cls-100" x1="319.18" y1="372.12" x2="319.11" y2="352.01"/><line class="cls-100" x1="316.22" y1="373.41" x2="316.14" y2="353.19"/><line class="cls-100" x1="313.21" y1="374.44" x2="313.13" y2="354.09"/><line class="cls-100" x1="310.16" y1="375.49" x2="310.08" y2="355.01"/><path class="cls-80" d="M259.39,292.2v14.2c0,1.14.7,2.16,1.76,2.57l33.46,12.87c1.8.69,3.74-.64,3.74-2.57v-14.2c0-1.14-.7-2.16-1.76-2.57l-33.46-12.87c-1.8-.69-3.74.64-3.74,2.57Z"/><path class="cls-68" d="M259.39,319.91v14.2c0,1.14.7,2.16,1.76,2.57l33.46,12.87c1.8.69,3.74-.64,3.74-2.57v-14.2c0-1.14-.7-2.16-1.76-2.57l-33.46-12.87c-1.8-.69-3.74.64-3.74,2.57Z"/><path class="cls-65" d="M259.39,347.57v14.2c0,1.14.7,2.16,1.76,2.57l33.46,12.87c1.8.69,3.74-.64,3.74-2.57v-14.2c0-1.14-.7-2.16-1.76-2.57l-33.46-12.87c-1.8-.69-3.74.64-3.74,2.57Z"/><path class="cls-93" d="M259.39,347.57v14.2c0,1.14.7,2.16,1.76,2.57l33.46,12.87c1.8.69,3.74-.64,3.74-2.57v-14.2c0-1.14-.7-2.16-1.76-2.57l-33.46-12.87c-1.8-.69-3.74.64-3.74,2.57Z"/><g class="cls-109"><path class="cls-66" d="M260.5,346.38v14.2c0,1.14.7,2.16,1.76,2.57l33.46,12.87c1.8.69,3.74-.64,3.74-2.57v-14.2c0-1.14-.7-2.16-1.76-2.57l-33.46-12.87c-1.8-.69-3.74.64-3.74,2.57Z"/></g><path class="cls-93" d="M259.39,319.91v14.2c0,1.14.7,2.16,1.76,2.57l33.46,12.87c1.8.69,3.74-.64,3.74-2.57v-14.2c0-1.14-.7-2.16-1.76-2.57l-33.46-12.87c-1.8-.69-3.74.64-3.74,2.57Z"/><g class="cls-106"><path class="cls-40" d="M260.5,318.76v14.2c0,1.14.7,2.16,1.76,2.57l33.46,12.87c1.8.69,3.74-.64,3.74-2.57v-14.2c0-1.14-.7-2.16-1.76-2.57l-33.46-12.87c-1.8-.69-3.74.64-3.74,2.57Z"/></g><path class="cls-93" d="M259.39,292.2v14.2c0,1.14.7,2.16,1.76,2.57l33.46,12.87c1.8.69,3.74-.64,3.74-2.57v-14.2c0-1.14-.7-2.16-1.76-2.57l-33.46-12.87c-1.8-.69-3.74.64-3.74,2.57Z"/><g class="cls-111"><path class="cls-73" d="M260.49,291.34v14.2c0,1.14.7,2.16,1.76,2.57l33.46,12.87c1.8.69,3.74-.64,3.74-2.57v-14.2c0-1.14-.7-2.16-1.76-2.57l-33.46-12.87c-1.8-.69-3.74.64-3.74,2.57Z"/></g><path class="cls-50" d="M289.81,306.2c.02.99.69,1.94,1.5,2.13s1.45-.46,1.44-1.45-.69-1.94-1.5-2.13-1.45.46-1.44,1.45Z"/><path class="cls-50" d="M289.7,313.16c.02.99.69,1.94,1.5,2.13s1.45-.46,1.44-1.45-.69-1.94-1.5-2.13-1.45.46-1.44,1.45Z"/><path class="cls-50" d="M284.6,304.31c.02.99.69,1.94,1.5,2.13s1.45-.46,1.44-1.45-.69-1.94-1.5-2.13-1.45.46-1.44,1.45Z"/><path class="cls-61" d="M284.49,311.26c.02.99.69,1.94,1.5,2.13s1.45-.46,1.44-1.45-.69-1.94-1.5-2.13-1.45.46-1.44,1.45Z"/><path class="cls-32" d="M279.4,302.23c.02.99.69,1.94,1.5,2.13s1.45-.46,1.44-1.45-.69-1.94-1.5-2.13-1.45.46-1.44,1.45Z"/><path class="cls-50" d="M279.29,309.18c.02.99.69,1.94,1.5,2.13s1.45-.46,1.44-1.45-.69-1.94-1.5-2.13-1.45.46-1.44,1.45Z"/><path class="cls-75" d="M274.45,300.49c.02.99.69,1.94,1.5,2.13s1.45-.46,1.44-1.45c-.02-.99-.69-1.94-1.5-2.13s-1.45.46-1.44,1.45Z"/><path class="cls-50" d="M274.34,307.44c.02.99.69,1.94,1.5,2.13s1.45-.46,1.44-1.45-.69-1.94-1.5-2.13-1.45.46-1.44,1.45Z"/><path class="cls-61" d="M269.62,298.59c.02.99.69,1.94,1.5,2.13s1.45-.46,1.44-1.45c-.02-.99-.69-1.94-1.5-2.13s-1.45.46-1.44,1.45Z"/><path class="cls-50" d="M269.51,305.55c.02.99.69,1.94,1.5,2.13s1.45-.46,1.44-1.45c-.02-.99-.69-1.94-1.5-2.13s-1.45.46-1.44,1.45Z"/><path class="cls-50" d="M264.63,297.03c.02.99.69,1.94,1.5,2.13s1.45-.46,1.44-1.45-.69-1.94-1.5-2.13-1.45.46-1.44,1.45Z"/><path class="cls-50" d="M264.52,303.99c.02.99.69,1.94,1.5,2.13s1.45-.46,1.44-1.45-.69-1.94-1.5-2.13-1.45.46-1.44,1.45Z"/><path class="cls-50" d="M289.81,333.59c.02.99.69,1.94,1.5,2.13s1.45-.46,1.44-1.45-.69-1.94-1.5-2.13-1.45.46-1.44,1.45Z"/><path class="cls-50" d="M289.7,340.55c.02.99.69,1.94,1.5,2.13s1.45-.46,1.44-1.45c-.02-.99-.69-1.94-1.5-2.13s-1.45.46-1.44,1.45Z"/><path class="cls-50" d="M284.6,331.69c.02.99.69,1.94,1.5,2.13s1.45-.46,1.44-1.45-.69-1.94-1.5-2.13-1.45.46-1.44,1.45Z"/><path class="cls-61" d="M284.49,338.65c.02.99.69,1.94,1.5,2.13s1.45-.46,1.44-1.45-.69-1.94-1.5-2.13-1.45.46-1.44,1.45Z"/><path class="cls-32" d="M279.4,329.62c.02.99.69,1.94,1.5,2.13s1.45-.46,1.44-1.45c-.02-.99-.69-1.94-1.5-2.13s-1.45.46-1.44,1.45Z"/><path class="cls-50" d="M279.29,336.57c.02.99.69,1.94,1.5,2.13s1.45-.46,1.44-1.45c-.02-.99-.69-1.94-1.5-2.13s-1.45.46-1.44,1.45Z"/><path class="cls-75" d="M274.45,327.88c.02.99.69,1.94,1.5,2.13s1.45-.46,1.44-1.45-.69-1.94-1.5-2.13-1.45.46-1.44,1.45Z"/><path class="cls-50" d="M274.34,334.83c.02.99.69,1.94,1.5,2.13s1.45-.46,1.44-1.45c-.02-.99-.69-1.94-1.5-2.13s-1.45.46-1.44,1.45Z"/><path class="cls-61" d="M269.62,325.98c.02.99.69,1.94,1.5,2.13s1.45-.46,1.44-1.45-.69-1.94-1.5-2.13-1.45.46-1.44,1.45Z"/><path class="cls-50" d="M269.51,332.94c.02.99.69,1.94,1.5,2.13s1.45-.46,1.44-1.45-.69-1.94-1.5-2.13-1.45.46-1.44,1.45Z"/><path class="cls-50" d="M264.63,324.42c.02.99.69,1.94,1.5,2.13s1.45-.46,1.44-1.45-.69-1.94-1.5-2.13-1.45.46-1.44,1.45Z"/><path class="cls-50" d="M264.52,331.38c.02.99.69,1.94,1.5,2.13s1.45-.46,1.44-1.45-.69-1.94-1.5-2.13-1.45.46-1.44,1.45Z"/><path class="cls-50" d="M289.81,361.07c.02.99.69,1.94,1.5,2.13s1.45-.46,1.44-1.45-.69-1.94-1.5-2.13-1.45.46-1.44,1.45Z"/><path class="cls-50" d="M289.7,368.03c.02.99.69,1.94,1.5,2.13s1.45-.46,1.44-1.45-.69-1.94-1.5-2.13-1.45.46-1.44,1.45Z"/><path class="cls-50" d="M284.6,359.17c.02.99.69,1.94,1.5,2.13s1.45-.46,1.44-1.45-.69-1.94-1.5-2.13-1.45.46-1.44,1.45Z"/><path class="cls-61" d="M284.49,366.13c.02.99.69,1.94,1.5,2.13s1.45-.46,1.44-1.45-.69-1.94-1.5-2.13-1.45.46-1.44,1.45Z"/><path class="cls-32" d="M279.4,357.1c.02.99.69,1.94,1.5,2.13s1.45-.46,1.44-1.45-.69-1.94-1.5-2.13-1.45.46-1.44,1.45Z"/><path class="cls-50" d="M279.29,364.05c.02.99.69,1.94,1.5,2.13s1.45-.46,1.44-1.45-.69-1.94-1.5-2.13-1.45.46-1.44,1.45Z"/><path class="cls-75" d="M274.45,355.36c.02.99.69,1.94,1.5,2.13s1.45-.46,1.44-1.45c-.02-.99-.69-1.94-1.5-2.13s-1.45.46-1.44,1.45Z"/><path class="cls-50" d="M274.34,362.31c.02.99.69,1.94,1.5,2.13s1.45-.46,1.44-1.45-.69-1.94-1.5-2.13-1.45.46-1.44,1.45Z"/><path class="cls-61" d="M269.62,353.46c.02.99.69,1.94,1.5,2.13s1.45-.46,1.44-1.45c-.02-.99-.69-1.94-1.5-2.13s-1.45.46-1.44,1.45Z"/><path class="cls-50" d="M269.51,360.42c.02.99.69,1.94,1.5,2.13s1.45-.46,1.44-1.45-.69-1.94-1.5-2.13-1.45.46-1.44,1.45Z"/><path class="cls-50" d="M264.63,351.9c.02.99.69,1.94,1.5,2.13s1.45-.46,1.44-1.45-.69-1.94-1.5-2.13-1.45.46-1.44,1.45Z"/><path class="cls-50" d="M264.52,358.86c.02.99.69,1.94,1.5,2.13s1.45-.46,1.44-1.45-.69-1.94-1.5-2.13-1.45.46-1.44,1.45Z"/><polygon class="cls-22" points="418.77 344.27 418.77 388.37 382.3 374.35 382.3 330.25 418.77 344.27"/><path class="cls-47" d="M430.74,240v12.84c0,5.04,9.49,9.13,21.2,9.13s21.2-4.09,21.2-9.13v-12.84h-42.41Z"/><ellipse class="cls-60" cx="451.95" cy="240" rx="21.2" ry="9.13"/><path class="cls-50" d="M432.45,227.86v11.81c0,4.64,8.73,8.39,19.5,8.39s19.5-3.76,19.5-8.39v-11.81h-39Z"/><path class="cls-37" d="M430.74,224.08v12.84c0,5.04,9.49,9.13,21.2,9.13s21.2-4.09,21.2-9.13v-12.84h-42.41Z"/><ellipse class="cls-38" cx="451.95" cy="224.08" rx="21.2" ry="9.13"/><path class="cls-50" d="M432.45,211.94v11.81c0,4.64,8.73,8.39,19.5,8.39s19.5-3.76,19.5-8.39v-11.81h-39Z"/><path class="cls-83" d="M430.74,208.13v12.84c0,5.04,9.49,9.13,21.2,9.13s21.2-4.09,21.2-9.13v-12.84h-42.41Z"/><ellipse class="cls-8" cx="451.95" cy="208.13" rx="21.2" ry="9.13"/><polygon class="cls-75" points="455.23 330.25 418.77 316.23 382.3 330.25 418.77 344.27 455.23 330.25"/><polygon class="cls-75" points="455.23 330.25 455.23 374.35 418.77 388.37 418.77 344.27 455.23 330.25"/><ellipse class="cls-75" cx="433.34" cy="266.96" rx=".9" ry="1.99"/><ellipse class="cls-75" cx="433.34" cy="282.44" rx=".9" ry="1.99"/><ellipse class="cls-75" cx="433.34" cy="297.52" rx=".9" ry="1.99"/><path class="cls-24" d="M472.9,286.14c.17-.46.25-.93.25-1.41v-12.84s0,0,0,0c0-.52-.11-1.04-.31-1.54.2-.5.31-1.01.31-1.54v-12.84h-42.41v12.84c0,.52.11,1.04.31,1.54-.2.5-.31,1.01-.31,1.54h0v12.84c0,.48.09.95.25,1.41-.17.46-.25.93-.25,1.41h0v12.84c0,5.04,9.49,9.13,21.2,9.13s21.2-4.09,21.2-9.13v-12.84s0,0,0,0c0-.48-.09-.95-.25-1.41Z"/><path class="cls-43" d="M452.05,335.97v16.93c0,6.65,12.52,12.04,27.96,12.04s27.96-5.39,27.96-12.04v-16.93h-55.92Z"/><ellipse class="cls-42" cx="480.01" cy="335.97" rx="27.96" ry="12.04"/><path class="cls-50" d="M454.29,319.95v15.57c0,6.11,11.51,11.07,25.71,11.07s25.71-4.96,25.71-11.07v-15.57h-51.43Z"/><path class="cls-71" d="M452.05,314.98v16.93c0,6.65,12.52,12.04,27.96,12.04s27.96-5.39,27.96-12.04v-16.93h-55.92Z"/><ellipse class="cls-6" cx="480.01" cy="314.98" rx="27.96" ry="12.04"/><path class="cls-50" d="M454.29,298.97v15.57c0,6.11,11.51,11.07,25.71,11.07s25.71-4.96,25.71-11.07v-15.57h-51.43Z"/><path class="cls-25" d="M452.05,293.93v16.93c0,6.65,12.52,12.04,27.96,12.04s27.96-5.39,27.96-12.04v-16.93h-55.92Z"/><ellipse class="cls-81" cx="480.01" cy="293.93" rx="27.96" ry="12.04"/><circle class="cls-75" cx="480.5" cy="314.37" r="2.51"/><circle class="cls-75" cx="480.5" cy="334.74" r="2.51"/><circle class="cls-75" cx="480.5" cy="355.77" r="2.51"/><path class="cls-62" d="M507.97,293.93c0-6.65-12.52-12.04-27.96-12.04s-27.96,5.39-27.96,12.04h0v16.93c0,.7.15,1.39.42,2.06-.27.67-.42,1.36-.42,2.06h0v16.93c0,.69.14,1.37.4,2.03-.26.66-.4,1.34-.4,2.03h0v16.93c0,6.65,12.52,12.04,27.96,12.04s27.96-5.39,27.96-12.04v-16.93h0c0-.69-.14-1.37-.4-2.03.26-.66.4-1.34.4-2.03v-16.93h0c0-.7-.15-1.39-.42-2.06.27-.67.42-1.36.42-2.06v-16.93Z"/><polygon class="cls-29" points="302.91 348.47 302.91 387.95 349.77 369.93 349.77 330.45 302.91 348.47"/><polygon class="cls-22" points="423.05 366.43 423.05 390.1 466.17 373.52 466.17 349.85 423.05 366.43"/><polygon class="cls-75" points="379.93 349.85 423.05 333.27 466.17 349.85 423.05 366.43 379.93 349.85"/><polygon class="cls-75" points="379.93 349.85 379.93 373.52 423.05 390.1 423.05 366.43 379.93 349.85"/><polygon class="cls-7" points="423.05 333.21 423.05 390.07 466.97 373.18 466.97 316.32 423.05 333.21"/><polygon class="cls-77" points="379.13 316.32 423.05 299.43 466.97 316.32 423.05 333.21 379.13 316.32"/><polygon class="cls-55" points="379.13 316.32 379.13 373.18 423.05 390.07 423.05 333.21 379.13 316.32"/><polygon class="cls-85" points="425.78 336.9 425.78 384.56 464.97 369.49 464.97 321.83 425.78 336.9"/><polygon class="cls-12" points="463.61 322.35 463.61 369 425.78 383.2 425.78 384.56 464.97 369.49 464.97 321.83 463.61 322.35"/><line class="cls-101" x1="460.05" y1="364.22" x2="459.98" y2="346.29"/><line class="cls-101" x1="457.52" y1="365.08" x2="457.46" y2="347.05"/><line class="cls-101" x1="454.98" y1="366.2" x2="454.91" y2="348.06"/><line class="cls-101" x1="452.4" y1="367.34" x2="452.33" y2="349.09"/><line class="cls-101" x1="449.79" y1="368.23" x2="449.72" y2="349.87"/><line class="cls-101" x1="447.14" y1="369.14" x2="447.07" y2="350.67"/><line class="cls-101" x1="443.77" y1="369.99" x2="443.7" y2="351.38"/><line class="cls-101" x1="441.05" y1="370.92" x2="440.98" y2="352.19"/><line class="cls-101" x1="438.31" y1="372.12" x2="438.24" y2="353.28"/><line class="cls-101" x1="435.53" y1="373.33" x2="435.46" y2="354.38"/><line class="cls-101" x1="432.7" y1="374.3" x2="432.63" y2="355.23"/><line class="cls-101" x1="429.85" y1="375.28" x2="429.77" y2="356.09"/><path class="cls-23" d="M382.26,328.81v13.31c0,1.07.66,2.02,1.65,2.41l31.36,12.06c1.69.65,3.51-.6,3.51-2.41v-13.31c0-1.07-.66-2.02-1.65-2.41l-31.36-12.06c-1.69-.65-3.51.6-3.51,2.41Z"/><path class="cls-78" d="M382.26,354.78v13.31c0,1.07.66,2.02,1.65,2.41l31.36,12.06c1.69.65,3.51-.6,3.51-2.41v-13.31c0-1.07-.66-2.02-1.65-2.41l-31.36-12.06c-1.69-.65-3.51.6-3.51,2.41Z"/><path class="cls-93" d="M382.26,354.78v13.31c0,1.07.66,2.02,1.65,2.41l31.36,12.06c1.69.65,3.51-.6,3.51-2.41v-13.31c0-1.07-.66-2.02-1.65-2.41l-31.36-12.06c-1.69-.65-3.51.6-3.51,2.41Z"/><g class="cls-103"><path class="cls-19" d="M383.3,353.7v13.31c0,1.07.66,2.02,1.65,2.41l31.36,12.06c1.69.65,3.51-.6,3.51-2.41v-13.31c0-1.07-.66-2.02-1.65-2.41l-31.36-12.06c-1.69-.65-3.51.6-3.51,2.41Z"/></g><path class="cls-93" d="M382.26,328.81v13.31c0,1.07.66,2.02,1.65,2.41l31.36,12.06c1.69.65,3.51-.6,3.51-2.41v-13.31c0-1.07-.66-2.02-1.65-2.41l-31.36-12.06c-1.69-.65-3.51.6-3.51,2.41Z"/><g class="cls-104"><path class="cls-87" d="M383.29,328v13.31c0,1.07.66,2.02,1.65,2.41l31.36,12.06c1.69.65,3.51-.6,3.51-2.41v-13.31c0-1.07-.66-2.02-1.65-2.41l-31.36-12.06c-1.69-.65-3.51.6-3.51,2.41Z"/></g><path class="cls-50" d="M410.77,341.93c.02.93.65,1.82,1.41,1.99s1.36-.44,1.35-1.36-.65-1.82-1.41-1.99-1.36.44-1.35,1.36Z"/><path class="cls-50" d="M410.67,348.45c.02.93.65,1.82,1.41,1.99s1.36-.44,1.35-1.36c-.02-.93-.65-1.82-1.41-1.99s-1.36.44-1.35,1.36Z"/><path class="cls-50" d="M405.89,340.15c.02.93.65,1.82,1.41,1.99s1.36-.44,1.35-1.36-.65-1.82-1.41-1.99-1.36.44-1.35,1.36Z"/><path class="cls-61" d="M405.79,346.67c.02.93.65,1.82,1.41,1.99s1.36-.44,1.35-1.36-.65-1.82-1.41-1.99-1.36.44-1.35,1.36Z"/><path class="cls-32" d="M401.01,338.2c.02.93.65,1.82,1.41,1.99s1.36-.44,1.35-1.36c-.02-.93-.65-1.82-1.41-1.99s-1.36.44-1.35,1.36Z"/><path class="cls-50" d="M400.91,344.72c.02.93.65,1.82,1.41,1.99s1.36-.44,1.35-1.36-.65-1.82-1.41-1.99-1.36.44-1.35,1.36Z"/><path class="cls-75" d="M396.38,336.57c.02.93.65,1.82,1.41,1.99s1.36-.44,1.35-1.36-.65-1.82-1.41-1.99-1.36.44-1.35,1.36Z"/><path class="cls-50" d="M396.28,343.09c.02.93.65,1.82,1.41,1.99s1.36-.44,1.35-1.36-.65-1.82-1.41-1.99-1.36.44-1.35,1.36Z"/><path class="cls-61" d="M391.85,334.8c.02.93.65,1.82,1.41,1.99s1.36-.44,1.35-1.36c-.02-.93-.65-1.82-1.41-1.99s-1.36.44-1.35,1.36Z"/><path class="cls-50" d="M391.75,341.32c.02.93.65,1.82,1.41,1.99s1.36-.44,1.35-1.36-.65-1.82-1.41-1.99-1.36.44-1.35,1.36Z"/><path class="cls-50" d="M387.17,333.34c.02.93.65,1.82,1.41,1.99s1.36-.44,1.35-1.36-.65-1.82-1.41-1.99-1.36.44-1.35,1.36Z"/><path class="cls-50" d="M387.07,339.86c.02.93.65,1.82,1.41,1.99s1.36-.44,1.35-1.36c-.02-.93-.65-1.82-1.41-1.99s-1.36.44-1.35,1.36Z"/><path class="cls-50" d="M410.77,367.6c.02.93.65,1.82,1.41,1.99s1.36-.44,1.35-1.36-.65-1.82-1.41-1.99-1.36.44-1.35,1.36Z"/><path class="cls-50" d="M410.67,374.12c.02.93.65,1.82,1.41,1.99s1.36-.44,1.35-1.36c-.02-.93-.65-1.82-1.41-1.99s-1.36.44-1.35,1.36Z"/><path class="cls-50" d="M405.89,365.82c.02.93.65,1.82,1.41,1.99s1.36-.44,1.35-1.36-.65-1.82-1.41-1.99-1.36.44-1.35,1.36Z"/><path class="cls-61" d="M405.79,372.34c.02.93.65,1.82,1.41,1.99s1.36-.44,1.35-1.36-.65-1.82-1.41-1.99-1.36.44-1.35,1.36Z"/><path class="cls-32" d="M401.01,363.88c.02.93.65,1.82,1.41,1.99s1.36-.44,1.35-1.36c-.02-.93-.65-1.82-1.41-1.99s-1.36.44-1.35,1.36Z"/><path class="cls-50" d="M400.91,370.4c.02.93.65,1.82,1.41,1.99s1.36-.44,1.35-1.36c-.02-.93-.65-1.82-1.41-1.99s-1.36.44-1.35,1.36Z"/><path class="cls-75" d="M396.38,362.25c.02.93.65,1.82,1.41,1.99s1.36-.44,1.35-1.36c-.02-.93-.65-1.82-1.41-1.99s-1.36.44-1.35,1.36Z"/><path class="cls-50" d="M396.28,368.77c.02.93.65,1.82,1.41,1.99s1.36-.44,1.35-1.36-.65-1.82-1.41-1.99-1.36.44-1.35,1.36Z"/><path class="cls-61" d="M391.85,360.47c.02.93.65,1.82,1.41,1.99s1.36-.44,1.35-1.36c-.02-.93-.65-1.82-1.41-1.99s-1.36.44-1.35,1.36Z"/><path class="cls-50" d="M391.75,366.99c.02.93.65,1.82,1.41,1.99s1.36-.44,1.35-1.36-.65-1.82-1.41-1.99-1.36.44-1.35,1.36Z"/><path class="cls-50" d="M387.17,359.01c.02.93.65,1.82,1.41,1.99s1.36-.44,1.35-1.36-.65-1.82-1.41-1.99-1.36.44-1.35,1.36Z"/><path class="cls-50" d="M387.07,365.53c.02.93.65,1.82,1.41,1.99s1.36-.44,1.35-1.36-.65-1.82-1.41-1.99-1.36.44-1.35,1.36Z"/><polygon class="cls-92" points="379.13 316.32 379.13 373.18 423.05 390.07 423.05 333.21 379.13 316.32"/><polygon class="cls-22" points="367.56 387.15 367.56 410.82 324.44 394.24 324.44 370.57 367.56 387.15"/><polygon class="cls-75" points="410.68 370.57 367.56 353.99 324.44 370.57 367.56 387.15 410.68 370.57"/><polygon class="cls-75" points="410.68 370.57 410.68 394.24 367.56 410.82 367.56 387.15 410.68 370.57"/><polygon class="cls-11" points="367.56 353.93 367.56 410.78 323.64 393.9 323.64 337.04 367.56 353.93"/><polygon class="cls-54" points="411.48 337.04 367.56 320.15 323.64 337.04 367.56 353.93 411.48 337.04"/><polygon class="cls-86" points="411.48 337.04 411.48 393.9 367.56 410.78 367.56 353.93 411.48 337.04"/><polygon class="cls-91" points="364.83 357.61 364.83 405.28 325.64 390.21 325.64 342.54 364.83 357.61"/><polygon class="cls-12" points="327 343.07 327 389.72 364.83 403.91 364.83 405.28 325.64 390.21 325.64 342.54 327 343.07"/><line class="cls-101" x1="330.56" y1="384.94" x2="330.63" y2="367.01"/><line class="cls-101" x1="333.09" y1="385.8" x2="333.15" y2="367.77"/><line class="cls-101" x1="335.63" y1="386.92" x2="335.7" y2="368.78"/><line class="cls-101" x1="338.21" y1="388.05" x2="338.28" y2="369.81"/><line class="cls-101" x1="340.82" y1="388.95" x2="340.89" y2="370.59"/><line class="cls-101" x1="343.47" y1="389.86" x2="343.54" y2="371.39"/><line class="cls-101" x1="346.84" y1="390.71" x2="346.91" y2="372.1"/><line class="cls-101" x1="349.56" y1="391.64" x2="349.63" y2="372.91"/><line class="cls-101" x1="352.3" y1="392.84" x2="352.37" y2="374"/><line class="cls-101" x1="355.08" y1="394.05" x2="355.15" y2="375.09"/><line class="cls-101" x1="357.91" y1="395.02" x2="357.98" y2="375.94"/><line class="cls-101" x1="360.76" y1="396" x2="360.84" y2="376.8"/><path class="cls-90" d="M408.35,349.52v13.31c0,1.07-.66,2.02-1.65,2.41l-31.36,12.06c-1.69.65-3.51-.6-3.51-2.41v-13.31c0-1.07.66-2.02,1.65-2.41l31.36-12.06c1.69-.65,3.51.6,3.51,2.41Z"/><path class="cls-18" d="M408.35,375.5v13.31c0,1.07-.66,2.02-1.65,2.41l-31.36,12.06c-1.69.65-3.51-.6-3.51-2.41v-13.31c0-1.07.66-2.02,1.65-2.41l31.36-12.06c1.69-.65,3.51.6,3.51,2.41Z"/><path class="cls-93" d="M408.35,375.5v13.31c0,1.07-.66,2.02-1.65,2.41l-31.36,12.06c-1.69.65-3.51-.6-3.51-2.41v-13.31c0-1.07.66-2.02,1.65-2.41l31.36-12.06c1.69-.65,3.51.6,3.51,2.41Z"/><g class="cls-110"><path class="cls-58" d="M407.31,374.42v13.31c0,1.07-.66,2.02-1.65,2.41l-31.36,12.06c-1.69.65-3.51-.6-3.51-2.41v-13.31c0-1.07.66-2.02,1.65-2.41l31.36-12.06c1.69-.65,3.51.6,3.51,2.41Z"/></g><path class="cls-93" d="M408.35,349.52v13.31c0,1.07-.66,2.02-1.65,2.41l-31.36,12.06c-1.69.65-3.51-.6-3.51-2.41v-13.31c0-1.07.66-2.02,1.65-2.41l31.36-12.06c1.69-.65,3.51.6,3.51,2.41Z"/><g class="cls-107"><path class="cls-59" d="M407.32,348.72v13.31c0,1.07-.66,2.02-1.65,2.41l-31.36,12.06c-1.69.65-3.51-.6-3.51-2.41v-13.31c0-1.07.66-2.02,1.65-2.41l31.36-12.06c1.69-.65,3.51.6,3.51,2.41Z"/></g><path class="cls-50" d="M379.84,362.65c-.02.93-.65,1.82-1.41,1.99s-1.36-.44-1.35-1.36.65-1.82,1.41-1.99,1.36.44,1.35,1.36Z"/><path class="cls-50" d="M379.94,369.17c-.02.93-.65,1.82-1.41,1.99s-1.36-.44-1.35-1.36.65-1.82,1.41-1.99,1.36.44,1.35,1.36Z"/><path class="cls-50" d="M384.72,360.87c-.02.93-.65,1.82-1.41,1.99s-1.36-.44-1.35-1.36.65-1.82,1.41-1.99,1.36.44,1.35,1.36Z"/><path class="cls-61" d="M384.82,367.39c-.02.93-.65,1.82-1.41,1.99s-1.36-.44-1.35-1.36.65-1.82,1.41-1.99,1.36.44,1.35,1.36Z"/><path class="cls-32" d="M389.6,358.92c-.02.93-.65,1.82-1.41,1.99s-1.36-.44-1.35-1.36.65-1.82,1.41-1.99,1.36.44,1.35,1.36Z"/><path class="cls-50" d="M389.7,365.44c-.02.93-.65,1.82-1.41,1.99s-1.36-.44-1.35-1.36.65-1.82,1.41-1.99,1.36.44,1.35,1.36Z"/><path class="cls-75" d="M394.23,357.29c-.02.93-.65,1.82-1.41,1.99s-1.36-.44-1.35-1.36.65-1.82,1.41-1.99,1.36.44,1.35,1.36Z"/><path class="cls-50" d="M394.33,363.81c-.02.93-.65,1.82-1.41,1.99s-1.36-.44-1.35-1.36c.02-.93.65-1.82,1.41-1.99s1.36.44,1.35,1.36Z"/><path class="cls-61" d="M398.76,355.52c-.02.93-.65,1.82-1.41,1.99s-1.36-.44-1.35-1.36c.02-.93.65-1.82,1.41-1.99s1.36.44,1.35,1.36Z"/><path class="cls-50" d="M398.86,362.04c-.02.93-.65,1.82-1.41,1.99s-1.36-.44-1.35-1.36.65-1.82,1.41-1.99,1.36.44,1.35,1.36Z"/><path class="cls-50" d="M403.44,354.05c-.02.93-.65,1.82-1.41,1.99s-1.36-.44-1.35-1.36.65-1.82,1.41-1.99,1.36.44,1.35,1.36Z"/><path class="cls-50" d="M403.54,360.57c-.02.93-.65,1.82-1.41,1.99s-1.36-.44-1.35-1.36.65-1.82,1.41-1.99,1.36.44,1.35,1.36Z"/><path class="cls-50" d="M379.84,388.32c-.02.93-.65,1.82-1.41,1.99s-1.36-.44-1.35-1.36.65-1.82,1.41-1.99,1.36.44,1.35,1.36Z"/><path class="cls-50" d="M379.94,394.84c-.02.93-.65,1.82-1.41,1.99s-1.36-.44-1.35-1.36.65-1.82,1.41-1.99,1.36.44,1.35,1.36Z"/><path class="cls-50" d="M384.72,386.54c-.02.93-.65,1.82-1.41,1.99s-1.36-.44-1.35-1.36.65-1.82,1.41-1.99,1.36.44,1.35,1.36Z"/><path class="cls-61" d="M384.82,393.06c-.02.93-.65,1.82-1.41,1.99s-1.36-.44-1.35-1.36.65-1.82,1.41-1.99,1.36.44,1.35,1.36Z"/><path class="cls-32" d="M389.6,384.59c-.02.93-.65,1.82-1.41,1.99s-1.36-.44-1.35-1.36.65-1.82,1.41-1.99,1.36.44,1.35,1.36Z"/><path class="cls-50" d="M389.7,391.11c-.02.93-.65,1.82-1.41,1.99s-1.36-.44-1.35-1.36.65-1.82,1.41-1.99,1.36.44,1.35,1.36Z"/><path class="cls-75" d="M394.23,382.96c-.02.93-.65,1.82-1.41,1.99s-1.36-.44-1.35-1.36.65-1.82,1.41-1.99,1.36.44,1.35,1.36Z"/><path class="cls-50" d="M394.33,389.48c-.02.93-.65,1.82-1.41,1.99s-1.36-.44-1.35-1.36c.02-.93.65-1.82,1.41-1.99s1.36.44,1.35,1.36Z"/><path class="cls-61" d="M398.76,381.19c-.02.93-.65,1.82-1.41,1.99s-1.36-.44-1.35-1.36c.02-.93.65-1.82,1.41-1.99s1.36.44,1.35,1.36Z"/><path class="cls-50" d="M398.86,387.71c-.02.93-.65,1.82-1.41,1.99s-1.36-.44-1.35-1.36.65-1.82,1.41-1.99,1.36.44,1.35,1.36Z"/><path class="cls-50" d="M403.44,379.72c-.02.93-.65,1.82-1.41,1.99s-1.36-.44-1.35-1.36.65-1.82,1.41-1.99,1.36.44,1.35,1.36Z"/><path class="cls-50" d="M403.54,386.24c-.02.93-.65,1.82-1.41,1.99s-1.36-.44-1.35-1.36.65-1.82,1.41-1.99,1.36.44,1.35,1.36Z"/><ellipse class="cls-75" cx="433.34" cy="219.06" rx=".9" ry="1.99"/><ellipse class="cls-75" cx="433.34" cy="235.07" rx=".9" ry="1.99"/><ellipse class="cls-75" cx="433.34" cy="250.98" rx=".9" ry="1.99"/></svg>